<svg xmlns="http://www.w3.org/2000/svg" xmlns:v="http://schemas.microsoft.com/visio/2003/SVGExtensions/" width="303.029" height="303.029" viewBox="0 0 227.272 227.272" xml:space="preserve" color-interpolation-filters="sRGB" class="st6"><style type="text/css">.st1{fill:#7030a0;stroke:none;stroke-linecap:round;stroke-linejoin:round;stroke-width:.25}.st2{stroke:red;stroke-width:12}.st2,.st3,.st4,.st5{stroke-linecap:round;stroke-linejoin:round}.st3{fill:red;stroke:red;stroke-width:.25}.st4,.st5{stroke:#00f;stroke-width:12}.st5{fill:#00f;stroke-width:.25}.st6{fill:none;fill-rule:evenodd;font-size:12px;overflow:visible;stroke-linecap:square;stroke-miterlimit:3}</style>
    <path d="M102.297 113.633a11.34 11.34 0 0 1 22.68 0 11.34 11.34 0 1 1-22.68 0z" class="st1"/><path d="M71.116 34.264h85.04" class="st2"/><path d="M102.297 11.586a11.34 11.34 0 1 1 22.68 0 11.34 11.34 0 1 1-22.68 0z" class="st3"/><path d="M193.004 156.156v-85.04" class="st2"/><path d="M204.344 113.633a11.34 11.34 0 1 1 22.68 0 11.34 11.34 0 1 1-22.68 0z" class="st3"/><path d="M71.116 193.004h85.04" class="st4"/><path d="M102.297 215.68a11.34 11.34 0 1 1 22.68 0 11.34 11.34 0 1 1-22.68 0z" class="st5"/><path d="M34.264 156.156v-85.04" class="st4"/><path d="M.25 113.633a11.34 11.34 0 1 1 22.68 0 11.34 11.34 0 1 1-22.68 0z" class="st5"/>
</svg>