<svg xmlns="http://www.w3.org/2000/svg" xmlns:v="http://schemas.microsoft.com/visio/2003/SVGExtensions/" width="115.306" height="120" viewBox="0 0 86.479 90" xml:space="preserve" color-interpolation-filters="sRGB" class="st7"><v:documentProperties v:langID="1042" v:metric="true" v:viewMarkup="false"/><style type="text/css">.st1,.st2{fill-opacity:.75}.st1{stroke:none;stroke-linecap:round;stroke-linejoin:round;stroke-width:.72;fill:red}.st2{fill:#00f}.st2,.st3,.st4{stroke:none;stroke-linecap:round;stroke-linejoin:round;stroke-width:.72}.st3{fill-opacity:.75;fill:#ff0}.st4{fill:none}.st5,.st6{fill:#000;font-family:돋움;font-size:1.99999em}.st6{font-family:Arial Unicode MS;font-size:4.99999em}.st7{fill:none;fill-rule:evenodd;font-size:12px;overflow:visible;stroke-linecap:square;stroke-miterlimit:3}</style><v:pageProperties v:drawingScale=".039" v:pageScale=".039" v:drawingUnits="24" v:shadowOffsetX="8.504" v:shadowOffsetY="-8.504"/><path d="M64.5 8.176a10.63 10.63 0 0 1 3.89 14.521 10.63 10.63 0 0 1-14.52 3.891 31.89 31.89 0 0 0-43.563 11.673A31.89 31.89 0 0 0 21.98 81.823 42.52 42.52 0 0 1 6.416 23.74 42.52 42.52 0 0 1 64.5 8.176z" class="st1"/><path d="M21.98 81.823a10.63 10.63 0 0 1-3.891-14.52 10.63 10.63 0 0 1 14.52-3.892A31.89 31.89 0 0 0 76.173 51.74 31.89 31.89 0 0 0 64.5 8.176 42.52 42.52 0 0 1 80.063 66.26 42.52 42.52 0 0 1 21.98 81.823z" class="st2"/><g transform="rotate(-60 31.526 50.932)"><title>시트.238</title><path d="M0 58.11a31.89 31.89 90 0 1 31.89-31.89 31.89 31.89 90 0 1 31.89 31.89 10.63 10.63-180 0 0 10.63 10.63 10.63 10.63-180 0 0 10.63-10.63A31.89 31.89 0 0 1 53.15 90a31.89 31.89 0 0 1-31.89-31.89 10.63 10.63-180 0 0-10.63-10.63A10.63 10.63-180 0 0 0 58.11z" class="st3"/></g><g transform="translate(37.57 -59.173)"><desc>ㆆ</desc><v:textBlock v:margins="rect(0,0,0,0)" v:tabSpace="42.52"/><v:textRect cx="14.173" cy="75.827" width="28.35" height="28.346"/><path class="st4" d="M0 61.654h28.346V90H0z"/><text x="2.17" y="83.72" class="st5" v:langID="1042"><v:paragraph v:horizAlign="1"/><v:tabList/>ㆆ</text></g><g transform="rotate(180 35.793 53.327)"><desc>ᅇ</desc><v:textBlock v:margins="rect(0,0,0,0)" v:tabSpace="42.52"/><v:textRect cx="28.346" cy="61.654" width="56.7" height="56.693"/><path class="st4" d="M0 33.307h56.693V90H0z"/><text x="0" y="84.15" class="st6" v:langID="1033"><v:paragraph v:spLine="-1.5" v:horizAlign="2"/><v:tabList/>ᅇ</text></g><g transform="translate(14.893 -2.48)"><desc>ㅇ</desc><v:textBlock v:margins="rect(0,0,0,0)" v:tabSpace="42.52"/><v:textRect cx="14.173" cy="75.827" width="28.35" height="28.346"/><path class="st4" d="M0 61.654h28.346V90H0z"/><text x="2.17" y="83.72" class="st5" v:langID="1042"><v:paragraph v:horizAlign="1"/><v:tabList/>ㅇ</text></g></svg>