<svg xmlns="http://www.w3.org/2000/svg" xmlns:v="http://schemas.microsoft.com/visio/2003/SVGExtensions/" width="116.052" height="116.487" viewBox="0 0 87.039 87.365" xml:space="preserve" color-interpolation-filters="sRGB" class="st9"><v:documentProperties v:langID="1042" v:metric="true" v:viewMarkup="false"/><style type="text/css">.st1{fill:red;fill-opacity:.75;stroke-width:.72}.st1,.st2,.st3{stroke:none;stroke-linecap:round;stroke-linejoin:round}.st2{fill-opacity:.75;fill:#00f;stroke-width:1}.st3{fill:none;stroke-width:.72}.st4{fill:#000;font-family:돋움;font-size:1.99999em}.st5{fill:#000;stroke:#000;stroke-linecap:round;stroke-linejoin:round;stroke-width:.24}.st6{fill:#ff0;font-family:돋움;font-size:4.00001em;font-weight:700;opacity:0}.st7,.st8{fill:#ff0;stroke:none;stroke-linecap:round;stroke-linejoin:round;stroke-width:.24}.st8{stroke-width:.72}.st9{fill:none;fill-rule:evenodd;font-size:12px;overflow:visible;stroke-linecap:square;stroke-miterlimit:3}</style><v:pageProperties v:drawingScale=".039" v:pageScale=".039" v:drawingUnits="24" v:shadowOffsetX="8.504" v:shadowOffsetY="-8.504"/><path d="M59.793 3.957a28.346 28.346 0 0 1 15.343 37.04 28.346 28.346 0 0 1-37.038 15.334A14.173 14.173 0 0 0 19.58 64.01a14.173 14.173 0 0 0 7.67 18.514A42.52 42.52 0 0 1 4.237 26.968 42.52 42.52 0 0 1 59.793 3.957z" class="st1"/>
    <g transform="translate(-15.348 64.4092) rotate(-67.5)" class="st2">
        <g transform="translate(2.0783e-13 120.56) scale(1 -1)">
            <path class="st2" d="m0 74.45a14.173 14.173 -90 0 0 14.17 14.18 14.173 14.173 -180 0 0 14.18 -14.18 28.346 28.346 0 0 1 28.34 -28.34 28.346 28.346 0 0 1 28.35 28.34 42.52 42.52 -180 0 0 -42.52 -42.52 42.52 42.52 -180 0 0 -42.52 42.52z"/>
        </g>
    </g>
    <g transform="translate(23.677 -1.606)"><desc>ㅇ</desc><v:textBlock v:margins="rect(0,0,0,0)" v:tabSpace="42.52"/><v:textRect cx="14.173" cy="73.192" width="28.35" height="28.346"/><path class="st3" d="M0 59.019h28.346v28.346H0z"/><text x="2.17" y="81.08" class="st4" v:langID="1042"><v:paragraph v:horizAlign="1"/><v:tabList/>ㅇ</text><path d="M7.795 72.487a6.38 5.671 0 0 1 12.76 0 6.38 5.671 0 0 1-12.76 0z" class="st5"/></g><g transform="rotate(90 50.91 51.63)"><desc>ㆆ</desc><v:textBlock v:margins="rect(0,0,0,0)" v:tabSpace="42.52"/><v:textRect cx="28.346" cy="59.019" width="56.7" height="56.693"/><path class="st3" d="M0 30.672h56.693v56.693H0z"/><text x="4.79" y="74.86" class="st6" v:langID="1042"><v:paragraph v:horizAlign="1"/><v:tabList/>ㆆ</text></g><path d="M30.764 29.068a7.087 7.087 0 1 1 14.17 0 7.087 7.087 0 1 1-14.17 0z" class="st7"/><g transform="translate(52.732 -38.456)"><rect x="0" y="47.68" width="4.252" height="39.685" rx="2.126" ry="2.126" class="st8"/></g>
</svg>