<svg class="st7" width="116.054" height="118.166" viewBox="0 0 87.039 88.625" xml:space="preserve" xmlns="http://www.w3.org/2000/svg" xmlns:v="http://schemas.microsoft.com/visio/2003/SVGExtensions/"><style type="text/css">.st1,.st2{fill:red;fill-opacity:.75;stroke:none;stroke-linecap:round;stroke-linejoin:round;stroke-width:.72}.st2{fill:#00f;stroke-width:1}.st4,.st5{fill:#000;font-family:돋움;font-size:4.00001em;font-weight:700}.st5{font-size:1.99999em}.st6{fill:#ff0;stroke:none;stroke-linecap:round;stroke-linejoin:round;stroke-width:.72}.st7{fill:none;fill-rule:evenodd;font-size:12px;overflow:visible;stroke-linecap:square;stroke-miterlimit:3}</style><path class="st1" d="M59.793 5.155a28.346 28.346 0 0 1 15.343 37.04A28.346 28.346 0 0 1 38.098 57.53a14.173 14.173 0 0 0-18.517 7.677 14.173 14.173 0 0 0 7.668 18.514A42.52 42.52 0 0 1 4.238 28.166 42.52 42.52 0 0 1 59.793 5.155z"/>    
    <g transform="translate(-15.348 66.0771) rotate(-67.5)" class="st2">
        <g transform="translate(2.0783e-13 120.56) scale(1 -1)">
            <path class="st2" d="m0 74.45a14.173 14.173 -90 0 0 14.17 14.18 14.173 14.173 -180 0 0 14.18 -14.18 28.346 28.346 0 0 1 28.34 -28.34 28.346 28.346 0 0 1 28.35 28.34 42.52 42.52 -180 0 0 -42.52 -42.52 42.52 42.52 -180 0 0 -42.52 42.52z"/>
        </g>
    </g>
    <text class="st4" x="19.963" y="47.523"><v:tabList/>ㆆ</text><text class="st5" x="26.077" y="80.702"><v:tabList/>ㅇ</text><rect class="st6" x="22.535" y="16.413" width="43.937" height="4.252" rx="2.126" ry="2.126"/>
</svg>