<svg class="st9" width="115.382" height="116.486" color-interpolation-filters="sRGB" viewBox="0 0 86.539 87.365" xml:space="preserve" xmlns="http://www.w3.org/2000/svg" xmlns:v="http://schemas.microsoft.com/visio/2003/SVGExtensions/"><style type="text/css">.st5{fill:#000;font-family:돋움;font-size:1.99999em}.st6{fill:#000;stroke:none;stroke-linecap:round;stroke-linejoin:round;stroke-width:.24}.st7{fill:#000;font-family:Arial Unicode MS;font-size:1.99999em}.st8{fill:#000;stroke:#000;stroke-linecap:round;stroke-linejoin:round;stroke-width:.24}.st9{fill:none;fill-rule:evenodd;font-size:12px;overflow:visible;stroke-linecap:square;stroke-miterlimit:3}</style><text class="st5" x="2.17" y="81.08" transform="rotate(90 53.029 54.22)"><v:tabList/>ㆆ</text><path class="st6" d="M26.86 15.412a4.6 5.146 0 1 1 9.2 0 4.6 5.146 0 1 1-9.2 0z"/><text class="st7" x="4.35" y="80.39" transform="rotate(180 34.745 58.45)"><v:tabList/>ᅇ</text><path class="st6" d="M62.134 45.364a4.252 5.953 0 0 1-8.5 0 4.252 5.953 0 0 1 8.5 0zM52.681 45.364a4.252 5.953 0 0 1-8.5 0 4.252 5.953 0 1 1 8.5 0z"/><g><text class="st5" x="2.17" y="81.08" transform="translate(19.884 -1.134)"><v:tabList/>ㅇ</text><path class="st8" d="M27.453 71.49a6.661 5.854 0 0 1 13.32 0 6.661 5.854 0 0 1-13.32 0z"/></g></svg>