<svg class="st6" width="312.566" height="190.205" color-interpolation-filters="sRGB" viewBox="0 0 234.425 142.656" xml:space="preserve" xmlns="http://www.w3.org/2000/svg"><style type="text/css">.st1{fill:none;stroke:#fff;stroke-linecap:round;stroke-linejoin:round;stroke-width:.25}.st2,.st3{fill-opacity:.75;stroke:#000;stroke-width:3}.st2{stroke-linecap:round;stroke-linejoin:round;fill:#00f}.st3{fill:red}.st3,.st4,.st5{stroke-linecap:round;stroke-linejoin:round}.st4{fill:#ff0;stroke:none;stroke-width:.24}.st5{stroke:#ff0;stroke-width:6}.st6{fill:none;fill-rule:evenodd;font-size:12px;overflow:visible;stroke-linecap:square;stroke-miterlimit:3}</style><path class="st1" d="M3.827 6.77h226.77v127.56H3.827z"/><path class="st2" d="M66.189 86.141l3.86-21.9 47.16 13.39 46.91-13.4 4.12 21.91a51.024 22.677 0 0 1-51.03 22.68 51.024 22.677 0 0 1-51.02-22.68z"/><path class="st3" d="M22.77 47.93l94.05-26.88a1.417 1.417 0 0 1 .78 0l94.06 26.88a1.417 1.417 0 0 1 0 2.72L117.6 77.52a1.417 1.417 0 0 1-.78 0L22.77 50.65a1.417 1.417 0 0 1 0-2.72z"/><path class="st4" d="M108.71 49.286a8.505 4.253 0 0 1 17.01 0 8.505 4.253 0 1 1-17.01 0z"/><path class="st5" d="M117.21 49.29l42.52 14.17v56.7"/></svg>