<?xml version="1.0" encoding="UTF-8" standalone="no"?>
<?xml-stylesheet type="text/css" href="../css/letter.css"?><!-- Created with Inkscape (http://www.inkscape.org/) -->

<svg
     xmlns:dc="http://purl.org/dc/elements/1.1/"
     xmlns:cc="http://creativecommons.org/ns#"
     xmlns:rdf="http://www.w3.org/1999/02/22-rdf-syntax-ns#"
     xmlns:svg="http://www.w3.org/2000/svg"
     xmlns="http://www.w3.org/2000/svg"
     xmlns:sodipodi="http://sodipodi.sourceforge.net/DTD/sodipodi-0.dtd"
     xmlns:inkscape="http://www.inkscape.org/namespaces/inkscape"
     width="100%"
     height="100%"
     viewBox="0 0 600 900"
     version="1.1"
     id="svg8"
     inkscape:version="0.92.1 r15371"
     style="fill:none;stroke:#000000;stroke-width:0.1"
     sodipodi:docname="letters.svg">
    <defs
          id="defs2" />
    <sodipodi:namedview
                        id="base"
                        pagecolor="#ffffff"
                        bordercolor="#666666"
                        borderopacity="1.0"
                        inkscape:pageopacity="0.0"
                        inkscape:pageshadow="2"
                        inkscape:zoom="2.1407464"
                        inkscape:cx="52.568166"
                        inkscape:cy="984.15888"
                        inkscape:document-units="mm"
                        inkscape:current-layer="layer3"
                        showgrid="false"
                        inkscape:window-width="1280"
                        inkscape:window-height="897"
                        inkscape:window-x="-8"
                        inkscape:window-y="32"
                        inkscape:window-maximized="1"
                        units="mm" />
    <metadata
              id="metadata5">
        <rdf:RDF>
            <cc:Work
                     rdf:about="">
                <dc:format>image/svg+xml</dc:format>
                <dc:type
                         rdf:resource="http://purl.org/dc/dcmitype/StillImage" />
                <dc:title />
            </cc:Work>
        </rdf:RDF>
    </metadata>
    <g
       inkscape:groupmode="layer"
       id="layer0"
       transform="translate(200,0)"
       inkscape:label="Layer 0">
        <rect
              x="0"
              y="0"
              height="100"
              width="100"
              id="rect53" />
        <rect
              x="30"
              y="5"
              height="30"
              width="40"
              id="rect55" />
        <rect
              x="30"
              y="65"
              height="30"
              width="40"
              id="rect57" />
        <path d = "M 70,0 v 35 l 30,30 v -65 z"/>
        <path d = "M 20,35 h 50 l 30,30 h -80 z"/>
    </g>
    <g
       inkscape:label="ㅣ"
       inkscape:groupmode="layer"
       transform="translate(400,0)"
       id="layer1">
        <path d="M 85,0 v 50"
              id="hangul01">
        </path>
    </g>
    <g
       inkscape:groupmode="layer"
       id="layer2"
       transform="translate(500,100)"
       inkscape:label="ᆞ">
        <path d="M 50,49 A1,1 0 1,0 50,51 A1,1 0 1,0 50,49"
              id="hangul02" />
    </g>
    <g
       inkscape:groupmode="layer"
       id="layer3"
       transform="translate(400,100)"
       inkscape:label="ㅡ">
        <path d="M 20,50 h 60"
              id="hangul03">
        </path>
    </g>
    <g
       inkscape:groupmode="layer"
       id="layer4"
       transform="translate(300,0)"
       inkscape:label="ㅏ">
        <path d="M 80,0 v 50 M 90,19 A1,1 0 1,0 90,21 A1,1 0 1,0 90,19"
              id="hangul04">
        </path>
    </g>
    <g
       inkscape:groupmode="layer"
       id="layer5"
       transform="translate(200,0)"
       inkscape:label="ㅓ">
        <path d="M 80,19 A1,1 0 1,0 80,21 A1,1 0 1,0 80,19 M 90,0 v 50"
              id="hangul05">
        </path>
    </g>
    <g
       inkscape:groupmode="layer"
       id="layer6"
       transform="translate(300,100)"
       inkscape:label="ㅗ">
        <path d="M 50,44 A1,1 0 1,0 50,46 A1,1 0 1,0 50,44 M 20,55 h 60"
              id="hangul06">
        </path>
    </g>
    <g
       inkscape:groupmode="layer"
       id="layer7"
       transform="translate(200,100)"
       inkscape:label="ㅜ">
        <path d="M 20,45 h 60 M 50,54 A1,1 0 1,0 50,56 A1,1 0 1,0 50,54"
              id="hangul06">
        </path>
    </g>
    <g
       inkscape:groupmode="layer"
       id="layer8"
       inkscape:label="Layer 8" />
    <g
       inkscape:groupmode="layer"
       id="layer9"
       inkscape:label="Layer 9" />
    <g
       inkscape:groupmode="layer"
       id="layer10"
       transform="translate(500,300)"
       inkscape:label="ㆎ">
        <path d="M 50,49 A1,1 0 1,0 50,51 A1,1 0 1,0 50,49 M 90,0 v 50"
              id="hangul0a">
        </path>
    </g>
    <g
       inkscape:groupmode="layer"
       id="layer11"
       transform="translate(400,300)"
       inkscape:label="ㅢ">
        <path d="M 20,50 h 60 M 90,0 v 50"
              id="hangul0b">
        </path>
    </g>
    <g
       inkscape:groupmode="layer"
       id="layer12"
       transform="translate(300,200)"
       inkscape:label="ㅐ">
        <path d="M 80,0 v 50 M 90,19 A1,1 0 1,0 90,21 A1,1 0 1,0 90,19 M 100,0 v 50"
              id="hangul0c">
        </path>
    </g>
    <g
       inkscape:groupmode="layer"
       id="layer13"
       transform="translate(200,200)"
       inkscape:label="ㅔ">
        <path d="M 80,19 A1,1 0 1,0 80,21 A1,1 0 1,0 80,19 M 90,0 v 50 M 100,0 v 50"
              id="hangul0d">
        </path>
    </g>
    <g
       inkscape:groupmode="layer"
       id="layer14"
       transform="translate(300,300)"
       inkscape:label="ㅚ">
        <path d="M 50,44 A1,1 0 1,0 50,46 A1,1 0 1,0 50,44 M 20,55 h 60 M 90,0 v 50"
              id="hangul0e">
        </path>
    </g>
    <g
       inkscape:groupmode="layer"
       id="layer15"
       transform="translate(200,300)"
       inkscape:label="ㅟ">
        <path d="M 20,45 h 60 M 50,54 A1,1 0 1,0 50,56 A1,1 0 1,0 50,54 M 90,0 v 50"
              id="hangul0f">
        </path>
    </g>
    <g
       inkscape:groupmode="layer"
       id="layer16"
       inkscape:label="Layer 16" />
    <g
       inkscape:groupmode="layer"
       id="layer17"
       inkscape:label="Layer 17" />
    <g
       inkscape:groupmode="layer"
       id="layer18"
       inkscape:label="Layer 18" />
    <g
       inkscape:groupmode="layer"
       id="layer19"
       inkscape:label="Layer 19" />
    <g
       inkscape:groupmode="layer"
       id="layer20"
       transform="translate(100,0)"
       inkscape:label="ㅑ">
        <path d="M 80,0 v 50 M 90,14 A1,1 0 1,0 90,16 A1,1 0 1,0 90,14 M 90,29 A1,1 0 1,0 90,31 A1,1 0 1,0 90,29"
              id="hangul14">
        </path>
    </g>
    <g
       inkscape:groupmode="layer"
       id="layer21"
       transform="translate(0,0)"
       inkscape:label="ㅕ">
        <path d="M 80,14 A1,1 0 1,0 80,16 A1,1 0 1,0 80,14 M 80,29 A1,1 0 1,0 80,31 A1,1 0 1,0 80,29 M 90,0 v 50"
              id="hangul15">
        </path>
    </g>
    <g
       inkscape:groupmode="layer"
       id="layer22"
       transform="translate(100,100)"
       inkscape:label="ㅛ">
        <path d="M 42,44 A1,1 0 1,0 42,46 A1,1 0 1,0 42,44 M 58,44 A1,1 0 1,0 58,46 A1,1 0 1,0 58,44 M 20,55 h 60"
              id="hangul16">
        </path>
    </g>
    <g
       inkscape:groupmode="layer"
       id="layer23"
       transform="translate(0,100)"
       inkscape:label="ㅠ">
        <path d="M 20,45 h 60 M 42,54 A1,1 0 1,0 42,56 A1,1 0 1,0 42,54 M 58,54 A1,1 0 1,0 58,56 A1,1 0 1,0 58,54"
              id="hangul17">
        </path>
    </g>
    <g
       inkscape:groupmode="layer"
       id="layer24"
       inkscape:label="Layer 24" />
    <g
       inkscape:groupmode="layer"
       id="layer25"
       inkscape:label="Layer 25" />
    <g
       inkscape:groupmode="layer"
       id="layer26"
       inkscape:label="Layer 26" />
    <g
       inkscape:groupmode="layer"
       id="layer27"
       inkscape:label="Layer 27" />
    <g
       inkscape:groupmode="layer"
       id="layer28"
       transform="translate(100,200)"
       inkscape:label="ㅒ">
        <path d="M 80,0 v 50 M 90,14 A1,1 0 1,0 90,16 A1,1 0 1,0 90,14 M 90,29 A1,1 0 1,0 90,31 A1,1 0 1,0 90,29 M 100,0 v 50"
              id="hangul1c">
        </path>
    </g>
    <g
       inkscape:groupmode="layer"
       id="layer29"
       transform="translate(0,200)"
       inkscape:label="ㅖ">
        <path d="M 80,14 A1,1 0 1,0 80,16 A1,1 0 1,0 80,14 M 80,29 A1,1 0 1,0 80,31 A1,1 0 1,0 80,29 M 90,0 v 50 M 100,0 v 50"
              id="hangul1d">
        </path>
    </g>
    <g
       inkscape:groupmode="layer"
       id="layer30"
       transform="translate(100,300)"
       inkscape:label="ㅛ">
        <path d="M 42,44 A1,1 0 1,0 42,46 A1,1 0 1,0 42,44 M 58,44 A1,1 0 1,0 58,46 A1,1 0 1,0 58,44 M 20,55 h 60 M 90,0 v 50"
              id="hangul16">
        </path>
    </g>
    <g
       inkscape:groupmode="layer"
       id="layer31"
       transform="translate(0,300)"
       inkscape:label="ㅠ">
        <path d="M 20,45 h 60 M 42,54 A1,1 0 1,0 42,56 A1,1 0 1,0 42,54 M 58,54 A1,1 0 1,0 58,56 A1,1 0 1,0 58,54 M 90,0 v 50"
              id="hangul17">
        </path>
    </g>
    <g
       inkscape:groupmode="layer"
       id="layer32"
       inkscape:label="Layer 32" />
    <g
       inkscape:groupmode="layer"
       id="layer33"
       transform="translate(10,50)"
       inkscape:label="Layer 33" />
    <g
       inkscape:groupmode="layer"
       id="layer34"
       inkscape:label="Layer 34" />
    <g
       inkscape:groupmode="layer"
       id="layer35"
       inkscape:label="Layer 35" />
    <g
       inkscape:groupmode="layer"
       id="layer36"
       inkscape:label="Layer 36" />
    <g
       inkscape:groupmode="layer"
       id="layer37"
       inkscape:label="Layer 37" />
    <g
       inkscape:groupmode="layer"
       id="layer38"
       inkscape:label="Layer 38" />
    <g
       inkscape:groupmode="layer"
       id="layer39"
       inkscape:label="Layer 39" />
    <g
       inkscape:groupmode="layer"
       id="layer40"
       inkscape:label="Layer 40" />
    <g
       inkscape:groupmode="layer"
       id="layer41"
       inkscape:label="Layer 41" />
    <g
       inkscape:groupmode="layer"
       id="layer42"
       inkscape:label="Layer 42" />
    <g
       inkscape:groupmode="layer"
       id="layer43"
       inkscape:label="Layer 43" />
    <g
       inkscape:groupmode="layer"
       id="layer44"
       inkscape:label="Layer 44" />
    <g
       inkscape:groupmode="layer"
       id="layer45"
       inkscape:label="Layer 45" />
    <g
       inkscape:groupmode="layer"
       id="layer46"
       inkscape:label="Layer 46" />
    <g
       inkscape:groupmode="layer"
       id="layer47"
       inkscape:label="Layer 47" />
    <g
       inkscape:groupmode="layer"
       id="layer48"
       inkscape:label="Layer 48" />
    <g
       inkscape:groupmode="layer"
       id="layer49"
       inkscape:label="Layer 49" />
    <g
       inkscape:groupmode="layer"
       id="layer50"
       inkscape:label="Layer 50" />
    <g
       inkscape:groupmode="layer"
       id="layer51"
       inkscape:label="Layer 51" />
    <g
       inkscape:groupmode="layer"
       id="layer52"
       inkscape:label="Layer 52" />
    <g
       inkscape:groupmode="layer"
       id="layer53"
       inkscape:label="Layer 53" />
    <g
       inkscape:groupmode="layer"
       id="layer54"
       inkscape:label="Layer 54" />
    <g
       inkscape:groupmode="layer"
       id="layer55"
       inkscape:label="Layer 55" />
    <g
       inkscape:groupmode="layer"
       id="layer56"
       inkscape:label="Layer 56" />
    <g
       inkscape:groupmode="layer"
       id="layer57"
       inkscape:label="Layer 57" />
    <g
       inkscape:groupmode="layer"
       id="layer58"
       inkscape:label="Layer 58" />
    <g
       inkscape:groupmode="layer"
       id="layer59"
       inkscape:label="Layer 59" />
    <g
       inkscape:groupmode="layer"
       id="layer60"
       inkscape:label="Layer 60" />
    <g
       inkscape:groupmode="layer"
       id="layer61"
       inkscape:label="Layer 61" />
    <g
       inkscape:groupmode="layer"
       id="layer62"
       inkscape:label="Layer 62" />
    <g
       inkscape:groupmode="layer"
       id="layer63"
       inkscape:label="Layer 63" />
    <g
       inkscape:groupmode="layer"
       id="layer64"
       inkscape:label="Layer 64" />
    <g
       inkscape:groupmode="layer"
       id="layer65"
       inkscape:label="Layer 65" />
    <g
       inkscape:groupmode="layer"
       id="layer66"
       inkscape:label="Layer 66" />
    <g
       inkscape:groupmode="layer"
       id="layer67"
       inkscape:label="Layer 67" />
    <g
       inkscape:groupmode="layer"
       id="layer68"
       inkscape:label="Layer 68" />
    <g
       inkscape:groupmode="layer"
       id="layer69"
       inkscape:label="Layer 69" />
    <g
       inkscape:groupmode="layer"
       id="layer70"
       inkscape:label="Layer 70" />
    <g
       inkscape:groupmode="layer"
       id="layer71"
       inkscape:label="Layer 71" />
    <g
       inkscape:groupmode="layer"
       id="layer72"
       inkscape:label="Layer 72" />
    <g
       inkscape:groupmode="layer"
       id="layer73"
       inkscape:label="Layer 73" />
    <g
       inkscape:groupmode="layer"
       id="layer74"
       inkscape:label="Layer 74" />
    <g
       inkscape:groupmode="layer"
       id="layer75"
       inkscape:label="Layer 75" />
    <g
       inkscape:groupmode="layer"
       id="layer76"
       inkscape:label="Layer 76" />
    <g
       inkscape:groupmode="layer"
       id="layer77"
       inkscape:label="Layer 77" />
    <g
       inkscape:groupmode="layer"
       id="layer78"
       inkscape:label="Layer 78" />
    <g
       inkscape:groupmode="layer"
       id="layer79"
       inkscape:label="Layer 79" />
    <g
       inkscape:groupmode="layer"
       id="layer80"
       inkscape:label="Layer 80" />
    <g
       inkscape:groupmode="layer"
       id="layer81"
       inkscape:label="Layer 81" />
    <g
       inkscape:groupmode="layer"
       id="layer82"
       inkscape:label="Layer 82" />
    <g
       inkscape:groupmode="layer"
       id="layer83"
       inkscape:label="Layer 83" />
    <g
       inkscape:groupmode="layer"
       id="layer84"
       inkscape:label="Layer 84" />
    <g
       inkscape:groupmode="layer"
       id="layer85"
       inkscape:label="Layer 85" />
    <g
       inkscape:groupmode="layer"
       id="layer86"
       inkscape:label="Layer 86" />
    <g
       inkscape:groupmode="layer"
       id="layer87"
       inkscape:label="Layer 87" />
    <g
       inkscape:groupmode="layer"
       id="layer88"
       inkscape:label="Layer 88" />
    <g
       inkscape:groupmode="layer"
       id="layer89"
       inkscape:label="Layer 89" />
    <g
       inkscape:groupmode="layer"
       id="layer90"
       inkscape:label="Layer 90" />
    <g
       inkscape:groupmode="layer"
       id="layer91"
       inkscape:label="Layer 91" />
    <g
       inkscape:groupmode="layer"
       id="layer92"
       inkscape:label="Layer 92" />
    <g
       inkscape:groupmode="layer"
       id="layer93"
       inkscape:label="Layer 93" />
    <g
       inkscape:groupmode="layer"
       id="layer94"
       inkscape:label="Layer 94" />
    <g
       inkscape:groupmode="layer"
       id="layer95"
       inkscape:label="Layer 95" />
    <g
       inkscape:groupmode="layer"
       id="layer96"
       inkscape:label="Layer 96" />
    <g
       inkscape:groupmode="layer"
       id="layer97"
       inkscape:label="Layer 97" />
    <g
       inkscape:groupmode="layer"
       id="layer98"
       inkscape:label="Layer 98" />
    <g
       inkscape:groupmode="layer"
       id="layer99"
       inkscape:label="Layer 99" />
    <g
       inkscape:groupmode="layer"
       id="layer100"
       inkscape:label="Layer 100" />
    <g
       inkscape:groupmode="layer"
       id="layer101"
       inkscape:label="Layer 101" />
    <g
       inkscape:groupmode="layer"
       id="layer102"
       inkscape:label="Layer 102" />
    <g
       inkscape:groupmode="layer"
       id="layer103"
       inkscape:label="Layer 103" />
    <g
       inkscape:groupmode="layer"
       id="layer104"
       inkscape:label="Layer 104" />
    <g
       inkscape:groupmode="layer"
       id="layer105"
       inkscape:label="Layer 105" />
    <g
       inkscape:groupmode="layer"
       id="layer106"
       inkscape:label="Layer 106" />
    <g
       inkscape:groupmode="layer"
       id="layer107"
       inkscape:label="Layer 107" />
    <g
       inkscape:groupmode="layer"
       id="layer108"
       inkscape:label="Layer 108" />
    <g
       inkscape:groupmode="layer"
       id="layer109"
       inkscape:label="Layer 109" />
    <g
       inkscape:groupmode="layer"
       id="layer110"
       inkscape:label="Layer 110" />
    <g
       inkscape:groupmode="layer"
       id="layer111"
       inkscape:label="Layer 111" />
    <g
       inkscape:groupmode="layer"
       id="layer112"
       inkscape:label="Layer 112" />
    <g
       inkscape:groupmode="layer"
       id="layer113"
       inkscape:label="Layer 113" />
    <g
       inkscape:groupmode="layer"
       id="layer114"
       inkscape:label="Layer 114" />
    <g
       inkscape:groupmode="layer"
       id="layer115"
       inkscape:label="Layer 115" />
    <g
       inkscape:groupmode="layer"
       id="layer116"
       inkscape:label="Layer 116" />
    <g
       inkscape:groupmode="layer"
       id="layer117"
       inkscape:label="Layer 117" />
    <g
       inkscape:groupmode="layer"
       id="layer118"
       inkscape:label="Layer 118" />
    <g
       inkscape:groupmode="layer"
       id="layer119"
       inkscape:label="Layer 119" />
    <g
       inkscape:groupmode="layer"
       id="layer120"
       inkscape:label="Layer 120" />
    <g
       inkscape:groupmode="layer"
       id="layer121"
       inkscape:label="Layer 121" />
    <g
       inkscape:groupmode="layer"
       id="layer122"
       inkscape:label="Layer 122" />
    <g
       inkscape:groupmode="layer"
       id="layer123"
       inkscape:label="Layer 123" />
    <g
       inkscape:groupmode="layer"
       id="layer124"
       inkscape:label="Layer 124" />
    <g
       inkscape:groupmode="layer"
       id="layer125"
       inkscape:label="Layer 125" />
    <g
       inkscape:groupmode="layer"
       id="layer126"
       inkscape:label="Layer 126" />
    <g
       inkscape:groupmode="layer"
       id="layer127"
       inkscape:label="Layer 127" />
    <g
       inkscape:groupmode="layer"
       id="layer128"
       transform="translate(400,500)"
       inkscape:label="ㅇ">
        <path d="M 50,5 A20,15 0 1,0 50,35 A20,15 0 1,0 50,5"
              id="hangul80" />
    </g>
    <g
       inkscape:groupmode="layer"
       id="layer129"
       transform="translate(0,500)"
       inkscape:label="ㅁ">
        <path d="M 30,5 v 30 M 30,5 h 40 v 30 M 30,35 h 40"
              id="hangul81" />
    </g>
    <g
       inkscape:groupmode="layer"
       id="layer130"
       transform="translate(100,500)"
       inkscape:label="ㅅ">
        <path d="M 50,5 30,35 M 50,5 70,35"
              id="hangul82" />
    </g>
    <g
       inkscape:groupmode="layer"
       id="layer131"
       transform="translate(200,500)"
       inkscape:label="ㄴ">
        <path d="M 30,5 v 30 h 40"
              id="hangul83" />
    </g>
    <g
       inkscape:groupmode="layer"
       id="layer132"
       transform="translate(300,500)"
       inkscape:label="ᇰ">
        <path d="M 50,5 v 10 M 50,15 A20,10 0 1,0 50,35 A20,10 0 1,0 50,15"
              id="hangul84" />
    </g>
    <g
       inkscape:groupmode="layer"
       id="layer133"
       transform="translate(400,600)"
       inkscape:label="ᅙ">
        <path d="M 30,5 h 40 M 50,15 A20,10 0 1,0 50,35 A20,10 0 1,0 50,15"
              id="hangul85" />
    </g>
    <g
       inkscape:groupmode="layer"
       id="layer134"
       transform="translate(0,600)"
       inkscape:label="ㅂ">
        <path d="M 30,5 v 30 M 70,5 v 30 M 30,15 h 40 M 30,35 h 40"
              id="hangul86" />
    </g>
    <g
       inkscape:groupmode="layer"
       id="layer135"
       transform="translate(100,600)"
       inkscape:label="ㅈ">
        <path d="M 30,5 h 40 M 50,5 30,35 M 50,5 70,35"
              id="hangul87" />
    </g>
    <g
       inkscape:groupmode="layer"
       id="layer136"
       transform="translate(200,600)"
       inkscape:label="ㄷ">
        <path d="M 30,5 h 40 M 30,5 v 30 h 40"
              id="hangul88" />
    </g>
    <g
       inkscape:groupmode="layer"
       id="layer137"
       transform="translate(300,600)"
       inkscape:label="ㄱ">
        <path d="M 30,5 h 40 v 30"
              id="hangul89" />
    </g>
    <g
       inkscape:groupmode="layer"
       id="layer138"
       transform="translate(400,700)"
       inkscape:label="ㅎ">
        <path d="M 40,5 h 20 M 30,12 h 40 M 50,19 A20,8 0 1,0 50,35 A20,8 0 1,0 50,19"
              id="hangul8a" />
    </g>
    <g
       inkscape:groupmode="layer"
       id="layer139"
       transform="translate(0,700)"
       inkscape:label="ㅍ">
        <path d="M 30,5 h 40 M 30,35 h 40 M 40,5 v 30 M 60,5 v 30"
              id="hangul8b" />
    </g>
    <g
       inkscape:groupmode="layer"
       id="layer140"
       transform="translate(100,700)"
       inkscape:label="ㅊ">
        <path d="M 40,5 h 20 M 30,12 h 40 M 50,12 30,35 M 50,12 70,35"
              id="hangul8c" />
    </g>
    <g
       inkscape:groupmode="layer"
       id="layer141"
       transform="translate(200,700)"
       inkscape:label="ㅌ">
        <path d="M 30,5 h 40 M 30,20 h 40 M 30,5 v 30 h 40"
              id="hangul88" />
    </g>
    <g
       inkscape:groupmode="layer"
       id="layer142"
       transform="translate(300,700)"
       inkscape:label="ㅋ">
        <path d="M 30,5 h 40 v 30 M 30,20 h 40"
              id="hangul89" />
    </g>
    <g
       inkscape:groupmode="layer"
       id="layer143"
       transform="translate(250,800)"
       inkscape:label="ㄹ">
        <path d="M 30,5 h 40 v 15 M 30,20 h 40 M 30,20 v 15 h 40"
              id="hangul8f" />
    </g>
    <g
       inkscape:groupmode="layer"
       id="layer144"
       inkscape:label="Layer 144" />
    <g
       inkscape:groupmode="layer"
       id="layer145"
       inkscape:label="Layer 145" />
    <g
       inkscape:groupmode="layer"
       id="layer146"
       inkscape:label="Layer 146" />
    <g
       inkscape:groupmode="layer"
       id="layer147"
       inkscape:label="Layer 147" />
    <g
       inkscape:groupmode="layer"
       id="layer148"
       inkscape:label="Layer 148" />
    <g
       inkscape:groupmode="layer"
       id="layer149"
       inkscape:label="Layer 149" />
    <g
       inkscape:groupmode="layer"
       id="layer150"
       inkscape:label="Layer 150" />
    <g
       inkscape:groupmode="layer"
       id="layer151"
       inkscape:label="Layer 151" />
    <g
       inkscape:groupmode="layer"
       id="layer152"
       inkscape:label="Layer 152" />
    <g
       inkscape:groupmode="layer"
       id="layer153"
       inkscape:label="Layer 153" />
    <g
       inkscape:groupmode="layer"
       id="layer154"
       inkscape:label="Layer 154" />
    <g
       inkscape:groupmode="layer"
       id="layer155"
       inkscape:label="Layer 155" />
    <g
       inkscape:groupmode="layer"
       id="layer156"
       inkscape:label="Layer 156" />
    <g
       inkscape:groupmode="layer"
       id="layer157"
       inkscape:label="Layer 157" />
    <g
       inkscape:groupmode="layer"
       id="layer158"
       inkscape:label="Layer 158" />
    <g
       inkscape:groupmode="layer"
       id="layer159"
       inkscape:label="Layer 159" />
    <g
       inkscape:groupmode="layer"
       id="layer160"
       transform="translate(400,900)"
       inkscape:label="ㅇ">
        <path d="M 38,5 A8,15 0 1,0 38,35 A8,15 0 1,0 38,5 M 62,5 A8,15 0 1,0 62,35 A8,15 0 1,0 62,5"
              id="hangula0" />
    </g>
    <g
       inkscape:groupmode="layer"
       id="layer161"
       transform="translate(0,900)"
       inkscape:label="ㅁㅁ">
        <path d="M 30,5 v 30 M 30,5 h 16 v 30 M 30,35 h 16 M 52,5 v 30 M 52,5 h 16 v 30 M 52,35 h 16"
              id="hangula1" />
    </g>
    <g
       inkscape:groupmode="layer"
       id="layer162"
       transform="translate(100,900)"
       inkscape:label="ㅆ">
        <path d="M 38,5 30,35 M 38,5 46,35 M 62,5 54,35 M 62,5 70,35"
              id="hangula2" />
    </g>
    <g
       inkscape:groupmode="layer"
       id="layer163"
       transform="translate(200,900)"
       inkscape:label="ㄴㄴ">
        <path d="M 30,5 v 30 h 16 M 54,5 v 30 h 16"
              id="hangula3" />
    </g>
    <g
       inkscape:groupmode="layer"
       id="layer164"
       transform="translate(300,900)"
       inkscape:label="ᇰᇰ">
        <path d="M 46,5 v 30 M 70,5 v 30"
              id="hangul84" />
    </g>
    <g
       inkscape:groupmode="layer"
       id="layer165"
       transform="translate(400,1000)"
       inkscape:label="ᅙᅙ">
        <path d="M 30,5 h 16 M 38,15 A8,10 0 1,0 38,35 A8,10 0 1,0 38,15 M 54,5 h 16 M 62,15 A8,10 0 1,0 62,35 A8,10 0 1,0 62,15"
              id="hangula5" />
    </g>
    <g
       inkscape:groupmode="layer"
       id="layer166"
       transform="translate(0,1000)"
       inkscape:label="ㅃ">
        <path d="M 30,5 v 30 M 46,5 v 30 M 30,15 h 16 M 30,35 h 16 M 54,5 v 30 M 70,5 v 30 M 54,15 h 16 M 54,35 h 16"
              id="hangula6" />
    </g>
    <g
       inkscape:groupmode="layer"
       id="layer167"
       transform="translate(100,1000)"
       inkscape:label="ㅉ">
        <path d="M 30,5 h 16 M 38,5 30,35 M 38,5 46,35 M 54,5 h 16 M 62,5 54,35 M 62,5 70,35"
              id="hangula7" />
    </g>
    <g
       inkscape:groupmode="layer"
       id="layer168"
       transform="translate(200,1000)"
       inkscape:label="ㄸ">
        <path d="M 30,5 h 16 M 30,5 v 30 h 16 M 54,5 h 16 M 54,5 v 30 h 16 "
              id="hangula8" />
    </g>
    <g
       inkscape:groupmode="layer"
       id="layer169"
       transform="translate(300,1000)"
       inkscape:label="ㄲ">
        <path d="M 30,5 h 16 v 30 M 54,5 h 16 v 30"
              id="hangula9" />
    </g>
    <g
       inkscape:groupmode="layer"
       id="layer170"
       transform="translate(400,1100)"
       inkscape:label="ᅘ">
        <path d="M 34,5 h 8 M 30,12 h 16 M 38,19 A8,8 0 1,0 38,35 A8,8 0 1,0 38,19 M 58,5 h 8 M 54,12 h 16 M 62,19 A8,8 0 1,0 62,35 A8,8 0 1,0 62,19"
              id="hangulaa" />
    </g>
    <g
       inkscape:groupmode="layer"
       id="layer171"
       inkscape:label="Layer 171" />
    <g
       inkscape:groupmode="layer"
       id="layer172"
       inkscape:label="Layer 172" />
    <g
       inkscape:groupmode="layer"
       id="layer173"
       inkscape:label="Layer 173" />
    <g
       inkscape:groupmode="layer"
       id="layer174"
       inkscape:label="Layer 174" />
    <g
       inkscape:groupmode="layer"
       id="layer175"
       inkscape:label="Layer 175" />
    <g
       inkscape:groupmode="layer"
       id="layer176"
       inkscape:label="Layer 176" />
    <g
       inkscape:groupmode="layer"
       id="layer177"
       inkscape:label="Layer 177" />
    <g
       inkscape:groupmode="layer"
       id="layer178"
       inkscape:label="Layer 178" />
    <g
       inkscape:groupmode="layer"
       id="layer179"
       inkscape:label="Layer 179" />
    <g
       inkscape:groupmode="layer"
       id="layer180"
       inkscape:label="Layer 180" />
    <g
       inkscape:groupmode="layer"
       id="layer181"
       inkscape:label="Layer 181" />
    <g
       inkscape:groupmode="layer"
       id="layer182"
       inkscape:label="Layer 182" />
    <g
       inkscape:groupmode="layer"
       id="layer183"
       inkscape:label="Layer 183" />
    <g
       inkscape:groupmode="layer"
       id="layer184"
       inkscape:label="Layer 184" />
    <g
       inkscape:groupmode="layer"
       id="layer185"
       inkscape:label="Layer 185" />
    <g
       inkscape:groupmode="layer"
       id="layer186"
       inkscape:label="Layer 186" />
    <g
       inkscape:groupmode="layer"
       id="layer187"
       inkscape:label="Layer 187" />
    <g
       inkscape:groupmode="layer"
       id="layer188"
       inkscape:label="Layer 188" />
    <g
       inkscape:groupmode="layer"
       id="layer189"
       inkscape:label="Layer 189" />
    <g
       inkscape:groupmode="layer"
       id="layer190"
       inkscape:label="Layer 190" />
    <g
       inkscape:groupmode="layer"
       id="layer191"
       inkscape:label="Layer 191" />
    <g
       inkscape:groupmode="layer"
       id="layer192"
       inkscape:label="Layer 192" />
    <g
       inkscape:groupmode="layer"
       id="layer193"
       inkscape:label="Layer 193" />
    <g
       inkscape:groupmode="layer"
       id="layer194"
       inkscape:label="Layer 194" />
    <g
       inkscape:groupmode="layer"
       id="layer195"
       inkscape:label="Layer 195" />
    <g
       inkscape:groupmode="layer"
       id="layer196"
       inkscape:label="Layer 196" />
    <g
       inkscape:groupmode="layer"
       id="layer197"
       inkscape:label="Layer 197" />
    <g
       inkscape:groupmode="layer"
       id="layer198"
       inkscape:label="Layer 198" />
    <g
       inkscape:groupmode="layer"
       id="layer199"
       inkscape:label="Layer 199" />
    <g
       inkscape:groupmode="layer"
       id="layer200"
       inkscape:label="Layer 200" />
    <g
       inkscape:groupmode="layer"
       id="layer201"
       inkscape:label="Layer 201" />
    <g
       inkscape:groupmode="layer"
       id="layer202"
       inkscape:label="Layer 202" />
    <g
       inkscape:groupmode="layer"
       id="layer203"
       inkscape:label="Layer 203" />
    <g
       inkscape:groupmode="layer"
       id="layer204"
       inkscape:label="Layer 204" />
    <g
       inkscape:groupmode="layer"
       id="layer205"
       inkscape:label="Layer 205" />
    <g
       inkscape:groupmode="layer"
       id="layer206"
       inkscape:label="Layer 206" />
    <g
       inkscape:groupmode="layer"
       id="layer207"
       inkscape:label="Layer 207" />
    <g
       inkscape:groupmode="layer"
       id="layer208"
       inkscape:label="Layer 208" />
    <g
       inkscape:groupmode="layer"
       id="layer209"
       inkscape:label="Layer 209" />
    <g
       inkscape:groupmode="layer"
       id="layer210"
       inkscape:label="Layer 210" />
    <g
       inkscape:groupmode="layer"
       id="layer211"
       inkscape:label="Layer 211" />
    <g
       inkscape:groupmode="layer"
       id="layer212"
       inkscape:label="Layer 212" />
    <g
       inkscape:groupmode="layer"
       id="layer213"
       inkscape:label="Layer 213" />
    <g
       inkscape:groupmode="layer"
       id="layer214"
       inkscape:label="Layer 214" />
    <g
       inkscape:groupmode="layer"
       id="layer215"
       inkscape:label="Layer 215" />
    <g
       inkscape:groupmode="layer"
       id="layer216"
       inkscape:label="Layer 216" />
    <g
       inkscape:groupmode="layer"
       id="layer217"
       inkscape:label="Layer 217" />
    <g
       inkscape:groupmode="layer"
       id="layer218"
       inkscape:label="Layer 218" />
    <g
       inkscape:groupmode="layer"
       id="layer219"
       inkscape:label="Layer 219" />
    <g
       inkscape:groupmode="layer"
       id="layer220"
       inkscape:label="Layer 220" />
    <g
       inkscape:groupmode="layer"
       id="layer221"
       inkscape:label="Layer 221" />
    <g
       inkscape:groupmode="layer"
       id="layer222"
       inkscape:label="Layer 222" />
    <g
       inkscape:groupmode="layer"
       id="layer223"
       inkscape:label="Layer 223" />
    <g
       inkscape:groupmode="layer"
       id="layer224"
       inkscape:label="Layer 224" />
    <g
       inkscape:groupmode="layer"
       id="layer225"
       inkscape:label="Layer 225" />
    <g
       inkscape:groupmode="layer"
       id="layer226"
       inkscape:label="Layer 226" />
    <g
       inkscape:groupmode="layer"
       id="layer227"
       inkscape:label="Layer 227" />
    <g
       inkscape:groupmode="layer"
       id="layer228"
       inkscape:label="Layer 228" />
    <g
       inkscape:groupmode="layer"
       id="layer229"
       inkscape:label="Layer 229" />
    <g
       inkscape:groupmode="layer"
       id="layer230"
       inkscape:label="Layer 230" />
    <g
       inkscape:groupmode="layer"
       id="layer231"
       inkscape:label="Layer 231" />
    <g
       inkscape:groupmode="layer"
       id="layer232"
       inkscape:label="Layer 232" />
    <g
       inkscape:groupmode="layer"
       id="layer233"
       inkscape:label="Layer 233" />
    <g
       inkscape:groupmode="layer"
       id="layer234"
       inkscape:label="Layer 234" />
    <g
       inkscape:groupmode="layer"
       id="layer235"
       inkscape:label="Layer 235" />
    <g
       inkscape:groupmode="layer"
       id="layer236"
       inkscape:label="Layer 236" />
    <g
       inkscape:groupmode="layer"
       id="layer237"
       inkscape:label="Layer 237" />
    <g
       inkscape:groupmode="layer"
       id="layer238"
       inkscape:label="Layer 238" />
    <g
       inkscape:groupmode="layer"
       id="layer239"
       inkscape:label="Layer 239" />
    <g
       inkscape:groupmode="layer"
       id="layer240"
       inkscape:label="Layer 240" />
    <g
       inkscape:groupmode="layer"
       id="layer241"
       inkscape:label="Layer 241" />
    <g
       inkscape:groupmode="layer"
       id="layer242"
       inkscape:label="Layer 242" />
    <g
       inkscape:groupmode="layer"
       id="layer243"
       inkscape:label="Layer 243" />
    <g
       inkscape:groupmode="layer"
       id="layer244"
       inkscape:label="Layer 244" />
    <g
       inkscape:groupmode="layer"
       id="layer245"
       inkscape:label="Layer 245" />
    <g
       inkscape:groupmode="layer"
       id="layer246"
       inkscape:label="Layer 246" />
    <g
       inkscape:groupmode="layer"
       id="layer247"
       inkscape:label="Layer 247" />
    <g
       inkscape:groupmode="layer"
       id="layer248"
       inkscape:label="Layer 248" />
    <g
       inkscape:groupmode="layer"
       id="layer249"
       inkscape:label="Layer 249" />
    <g
       inkscape:groupmode="layer"
       id="layer250"
       inkscape:label="Layer 250" />
    <g
       inkscape:groupmode="layer"
       id="layer251"
       inkscape:label="Layer 251" />
    <g
       inkscape:groupmode="layer"
       id="layer252"
       inkscape:label="Layer 252" />
    <g
       inkscape:groupmode="layer"
       id="layer253"
       inkscape:label="Layer 253" />
    <g
       inkscape:groupmode="layer"
       id="layer254"
       inkscape:label="Layer 254" />
    <g
       inkscape:groupmode="layer"
       id="layer255"
       inkscape:label="Layer 255" />
</svg>
