<svg xmlns="http://www.w3.org/2000/svg" width="459.433" height="158.134" viewBox="0 0 344.575 118.6" xml:space="preserve" color-interpolation-filters="sRGB" class="st20"><style type="text/css">.st1,.st2,.st3,.st4,.st5{stroke:none;stroke-linecap:round;stroke-linejoin:round;stroke-width:.72}.st1{fill-opacity:0;fill:#fff}.st2,.st3,.st4,.st5{fill:red}.st3,.st4,.st5{fill:#00f}.st4,.st5{fill:#ff0}.st5{fill:none;stroke-width:.24}.st6,.st7{fill:#fff;font-family:Candara;font-size:1.5em;font-weight:700}.st7{fill:#000}.st8{fill:none;stroke:#000;stroke-linecap:round;stroke-linejoin:round;stroke-width:.24}.st9{fill:#fff;font-family:맑은 고딕;font-size:1.5em;font-weight:700}.st10{font-family:Candara;font-size:1em}.st11,.st12,.st13,.st14,.st15,.st16,.st17{fill:#000;font-family:맑은 고딕;font-size:1.5em;font-weight:700}.st12,.st13,.st14,.st15,.st16,.st17{fill:#3f00ff}.st13,.st14,.st15,.st16,.st17{fill:#ff003f}.st14,.st15,.st16,.st17{font-family:Candara}.st15,.st16,.st17{fill:#000;font-size:2.50001em}.st16,.st17{fill:red}.st17{fill:#33f}.st18,.st19{fill:#ff0;stroke:none;stroke-linecap:round;stroke-linejoin:round;stroke-width:.24}.st19{fill:none;stroke:#000;stroke-width:1.5}.st20{fill:none;fill-rule:evenodd;font-size:12px;overflow:visible;stroke-linecap:square;stroke-miterlimit:3}</style><path class="st1" d="M31.264 2.209h198.425v85.039H31.264z"/><path d="M34.098 5.045v22.68h170.08v2.83h22.68V5.045H34.098z" class="st2"/><path d="M226.854 84.412v-22.68H56.774v-2.83h-22.68v25.51h192.76z" class="st3"/><path d="M226.858 30.551v25.52H56.778v2.83h-22.68v-25.51h170.08v-2.84h22.68z" class="st4"/><path class="st1" d="M229.689 2.209h113.386v85.039H229.689z"/><path d="M232.524 5.045v22.86l85.04-.18v2.83h22.68V5.045h-107.72z" class="st2"/><path d="M340.241 84.412v-22.68l-85.04-.18v-2.65h-22.68v25.51h107.72z" class="st3"/><path d="M340.244 30.551v25.52l-85.04-.24v3.07h-22.68v-25.51h85.04v-2.84h22.68z" class="st4"/><path class="st5" d="M130.476 2.209h99.213v28.346h-99.213z"/><text x="0" y="109.83" class="st6" transform="translate(130.476 -88.045)">Consonant</text><path class="st5" d="M130.476 30.555h99.213v28.346h-99.213z"/><text x="0" y="109.83" class="st7" transform="translate(130.476 -59.699)">Vowel</text><path class="st5" d="M130.476 58.902h99.213v28.346h-99.213z"/><text x="0" y="109.83" class="st6" transform="translate(130.476 -31.352)">Consonant</text><path class="st8" d="M229.689 2.209h113.386v28.346H229.689z"/><text x="4" y="110.23" class="st9" transform="translate(229.689 -88.045)">ⓓ<tspan class="st10"> </tspan><tspan class="st10">Derivative</tspan></text><path class="st8" d="M229.689 30.555h113.386v28.346H229.689z"/><text x="4" y="110.23" class="st11" transform="translate(229.689 -59.699)">ⓒ<tspan class="st10"> </tspan><tspan class="st10">Composite</tspan></text><path class="st8" d="M229.689 58.902h113.386v28.346H229.689z"/><text x="4" y="110.23" class="st9" transform="translate(229.689 -31.352)">ⓑ<tspan class="st10"> </tspan><tspan class="st10">Basis</tspan></text><path class="st8" d="M229.689 88.665h113.386v28.346H229.689z"/><text x="4" y="110.23" class="st12" transform="translate(229.689 -1.589)">ⓐ<tspan class="st10"> </tspan><tspan class="st10">Alphabet</tspan></text><path class="st5" d="M31.264 2.209h99.213v28.346H31.264z"/><text x="6" y="110.23" class="st9" transform="translate(31.264 -88.045)">①<tspan class="st10"> </tspan><tspan class="st10">Opening</tspan></text><g><path class="st5" d="M31.264 30.555h99.213v28.346H31.264z"/><text x="6" y="110.23" class="st11" transform="translate(31.264 -59.699)">②<tspan class="st10"> </tspan><tspan class="st10">Lasting</tspan></text></g><g><path class="st5" d="M31.264 58.902h99.213v28.346H31.264z"/><text x="6" y="110.23" class="st9" transform="translate(31.264 -31.352)">③ <tspan class="st10">Closing</tspan></text></g><g><path class="st5" d="M31.264 88.665h99.213v28.346H31.264z"/><text x="6" y="110.23" class="st13" transform="translate(31.264 -1.589)">④<tspan class="st10"> </tspan><tspan class="st10">Corean</tspan></text></g><g><path class="st5" d="M130.476 88.665h99.213v28.346h-99.213z"/><text x="0" y="109.83" class="st14" transform="translate(130.476 -1.589)">Syllable</text></g><g><path class="st5" d="M201.343 88.665h28.346v28.346h-28.346z"/><text x="4.61" y="111.93" class="st15" transform="translate(201.343 -1.589)">≥</text></g><g><path class="st8" d="M1.5 2.209h28.346v28.346H1.5z"/><text x="6.61" y="111.93" class="st16" transform="translate(1.5 -88.045)">&lt;</text><path class="st8" d="M1.5 30.555h28.346v28.346H1.5z"/><text x="6.61" y="111.93" class="st15" transform="translate(1.5 -59.699)">=</text><path class="st8" d="M1.5 58.902h28.346v28.346H1.5z"/><text x="6.61" y="111.93" class="st17" transform="translate(1.5 -31.352)">&gt;</text><g><path class="st8" d="M1.5 88.665h28.346v28.346H1.5z"/></g><g><path d="M22.762 90.566a14.175 14.175 0 1 1-14.175 24.551 14.175 14.175 0 1 1 14.175-24.551z" class="st18"/><path d="M22.763 90.566a4.724 4.724 0 0 0 1.728 6.448 4.724 4.724 0 0 0-6.453 1.736A9.449 9.449 0 0 1 5.13 102.21a9.449 9.449 0 0 1 3.46 12.909 14.173 14.173 0 0 0-5.19-19.37 14.173 14.173 0 0 0 19.364-5.182z" class="st2"/><path d="M8.583 115.11a4.724 4.724 0 0 0-1.728-6.447 4.724 4.724 0 0 0 6.453-1.736 9.449 9.449 0 0 1 12.909-3.459 9.449 9.449 0 0 1-3.459-12.909 14.173 14.173 0 0 0 5.19 19.37 14.173 14.173 0 0 0-19.365 5.182z" class="st3"/></g></g><g><path class="st8" d="M31.264 2.209h198.425v28.346H31.264z"/></g><g><path class="st8" d="M31.264 58.902h198.425v28.346H31.264z"/></g><g><path class="st8" d="M31.264 30.555h198.425v28.346H31.264z"/></g><g><path class="st8" d="M31.264 88.665h198.425v28.346H31.264z"/></g><g><path class="st19" d="M1.5 1.5h341.575v114.803H1.5z"/></g></svg>