<svg width="157.6" height="120.39" version="1.1" viewBox="0 0 157.601 120.394" xml:space="preserve" xmlns="http://www.w3.org/2000/svg"><radialGradient id="a" cx="188.19" cy="227.95" r="260.57" gradientUnits="userSpaceOnUse"><stop stop-color="#001F2D" offset=".255"/><stop stop-color="#4D4D4D" offset=".964"/></radialGradient><path d="M143.66 0s12.721 12.197 13.886 19.877c0 0 1.007 8.295-5.896 9.85 0 0-15.277 2.558-15.587 7.833 0 0 .08 4.343 2.25 7.911 0 0 5.661 11.631-4.42 13.645 0 0-6.826 1.864-9.696-11.863 0 0-2.634-7.601-2.479-11.091l-11.4-13.183 6.36-.23s4.572.932 6.435 2.4c0 0 4.73 3.489 5.661 4.888 0 0 1.009.466 2.172-1.163 0 0 5.04-5.741 11.167-5.503 0 0 1.862.231 2.638 1.395 0 0 1.395 1.007 2.56-.47 0 0 4.652-3.952.542-7.52 0 0-19.743-13.471-20.362-16.821L143.66 0z" fill="url(#a)"/><radialGradient id="b" cx="3026" cy="-74.644" r="188.48" gradientTransform="matrix(-1 0 0 1 3268.8 0)" gradientUnits="userSpaceOnUse"><stop stop-color="#001F2D" offset=".255"/><stop stop-color="#4D4D4D" offset=".964"/></radialGradient><path d="M143.67.045s12.719 12.201 13.88 19.877c0 0 1.009 8.303-5.893 9.85 0 0-15.277 2.561-15.587 7.834 0 0 .076 4.342 2.248 7.91 0 0 8.771 16.987-4.355 16.986 0 0-6.89-1.477-9.759-15.203 0 0-2.636-7.6-2.483-11.088l-11.396-13.188 6.358-.23s4.576.93 6.437 2.404c0 0 4.73 3.488 5.661 4.885 0 0 1.009.465 2.172-1.162 0 0 5.04-5.738 11.165-5.508 0 0 1.862.234 2.638 1.398 0 0 1.396 1.006 2.56-.467 0 0 4.652-3.955.544-7.521 0 0-19.745-13.473-20.364-16.822l16.174.045z" fill="url(#b)"/><radialGradient id="c" cx="119.04" cy="99.478" r="20.174" gradientUnits="userSpaceOnUse"><stop stop-color="#8D3991" offset=".115"/><stop stop-color="#4C2655" offset=".746"/></radialGradient><path d="M114.73 79.43s-2.853 3.643-4.065 9.949l-5.732 10.774 1.596 4.076 10.04.708 2.892-.352 4.491-5.966-.651-5.67-1.594-5.311 3.069-8.21H114.73z" fill="url(#c)"/><radialGradient id="d" cx="44.424" cy="131.47" r="100.44" gradientUnits="userSpaceOnUse"><stop stop-color="#001F2D" offset=".255"/><stop stop-color="#4D4D4D" offset="1"/></radialGradient><path d="M133.96 63.853s6.792 1.5 4.405 12.397c0 0-.125 3.788-4.409 7.217 0 0-5.289 4.262-4.996 9.936 0 0 1.576 9.465-.011 12.78 0 0-3.891 6.563-9.273 6.858 0 0-13.662.65-21.353 0 0 0-15.733.238-21.412 1.657 0 0-9.464 3.052-11.948 5.695h-28.27s-.178-2.967-2.127-6.15c0 0-9.565-19.223-5.934-21.087 0 0 2.835-.529 5.137 4.521 0 0 3.275 5.844 5.138 6.289 0 0 4.608 2.92 3.456-2.395l2.744 1.594 15.236 4.073 14.35-3.896 18.956-4.958h10.452l2.655 1.237s12.613 9.438 15.733-1.451c0 0 .34-2.831-1.702-4.994 0 0-1.589-2.945.852-7.825 0 0 1.757-5.841 1.021-9.018 0 .002-.161-12.086 11.3-12.48z" fill="url(#d)"/><radialGradient id="e" cx="68.075" cy="60.917" r="53.539" gradientUnits="userSpaceOnUse"><stop stop-color="#EE785F" offset=".186"/><stop stop-color="#A2452D" offset=".576"/><stop stop-color="#5D2013" offset="1"/></radialGradient><path d="M48.063 56.558c14.527-9.216 38.479-3.913 38.479-3.913 9.304 2.711 20.895 11.956 20.895 11.956 6.785 8.188-2.183 8.479-2.183 8.479-6.104 1.451-5.476 6.107-5.476 6.107 1.94 4.361 7.368 0 7.368 0 7.075-7.85 10.467-6.353 10.467-6.353a3.313 3.313 0 0 0-.704.569l.704-.569.543 1.494-.543 6.705-7.017 9.241c-.458 1.942-.722 3.237-.722 3.237-1.377 6.616-8.253 7.085-8.253 7.085-7.793.089-11.958 1.242-11.958 1.242-3.012.44-22.675 5.844-22.675 5.844-13.199 3.369-22.59-3.276-22.59-3.276-5.843-4.072-7.882-29.495-7.882-29.495.179-14.793 11.547-18.353 11.547-18.353z" fill="url(#e)"/><path d="M125.66 62.95s1.211 4.606 0 7.117c0 0-1.594 4.045-2.096 6.523 0 0-.918 3.458-2.952 6.087 0 0-2.807 4.399-3.751 5.872 0 0-.944 2.366-1.624 2.544 0 0-1.741.736-1.565-3.959 0 0-.327-9.063 1.683-11.66 0 0 2.038-3.607 4.077-5.581 0 0 2.329-2.984 3.069-4.813 0 0 2.006-3.866 3.159-2.13z" fill="#B8B8B8"/></svg>