<?xml version="1.0" encoding="UTF-8" standalone="no"?>
<svg
   xmlns:dc="http://purl.org/dc/elements/1.1/"
   xmlns:cc="http://creativecommons.org/ns#"
   xmlns:rdf="http://www.w3.org/1999/02/22-rdf-syntax-ns#"
   xmlns:svg="http://www.w3.org/2000/svg"
   xmlns="http://www.w3.org/2000/svg"
   xmlns:sodipodi="http://sodipodi.sourceforge.net/DTD/sodipodi-0.dtd"
   xmlns:inkscape="http://www.inkscape.org/namespaces/inkscape"
   width="157.6"
   height="120.78"
   version="1.1"
   viewBox="0 0 157.601 120.784"
   xml:space="preserve"
   id="svg27"
   sodipodi:docname="speech0d.svg"
   inkscape:version="0.92.1 r15371"><metadata
     id="metadata33"><rdf:RDF><cc:Work
         rdf:about=""><dc:format>image/svg+xml</dc:format><dc:type
           rdf:resource="http://purl.org/dc/dcmitype/StillImage" /></cc:Work></rdf:RDF></metadata><defs
     id="defs31" /><sodipodi:namedview
     pagecolor="#ffffff"
     bordercolor="#666666"
     borderopacity="1"
     objecttolerance="10"
     gridtolerance="10"
     guidetolerance="10"
     inkscape:pageopacity="0"
     inkscape:pageshadow="2"
     inkscape:window-width="1135"
     inkscape:window-height="995"
     id="namedview29"
     showgrid="false"
     inkscape:zoom="5.0789648"
     inkscape:cx="78.800003"
     inkscape:cy="60.389999"
     inkscape:window-x="772"
     inkscape:window-y="46"
     inkscape:window-maximized="0"
     inkscape:current-layer="svg27" /><radialGradient
     id="a"
     cx="116.85"
     cy="105.57"
     r="19.964"
     gradientUnits="userSpaceOnUse"><stop
       stop-color="#8D3991"
       offset=".115"
       id="stop2" /><stop
       stop-color="#4C2655"
       offset=".746"
       id="stop4" /></radialGradient><path
     d="M113.74 84.37s-3.162 3.372-4.927 9.551l-6.657 10.23 1.229 4.197 9.935 1.594 2.915-.1 4.996-5.546-.146-5.705-1.121-5.432 3.783-7.907-10.007-.882z"
     fill="url(#a)"
     id="path7" /><radialGradient
     id="b"
     cx="28.454"
     cy="117.19"
     r="116.51"
     gradientUnits="userSpaceOnUse"><stop
       stop-color="#001F2D"
       offset=".255"
       id="stop9" /><stop
       stop-color="#4D4D4D"
       offset="1"
       id="stop11" /></radialGradient><path
     d="M134.22 74.973c-9.138-2.924-12.291 7.015-12.291 7.015.453 3.227-1.813 8.893-1.813 8.893-2.859 4.643-1.538 7.723-1.538 7.723 1.844 2.326 1.254 5.118 1.254 5.118-4.066 10.575-15.798.061-15.798.061l-2.537-1.469-10.412-.925-19.316 3.269-14.642 2.618-14.816-5.399-2.595-1.836c.679 5.4-3.65 2.078-3.65 2.078-1.815-.608-4.563-6.716-4.563-6.716-1.85-5.232-4.72-4.955-4.72-4.955-3.781 1.533 4.051 21.523 4.051 21.523 1.661 3.348 1.576 6.317 1.576 6.317.167 1.914-.47 2.497-.47 2.497h28.631c2.707-2.415 12.404-4.617 12.404-4.617 5.78-.914 21.474.235 21.474.235 7.602 1.326 21.268 1.885 21.268 1.885 5.39.182 9.845-6.015 9.845-6.015 1.871-3.159 1.14-12.724 1.14-12.724.205-5.685 5.852-9.462 5.852-9.462 4.571-3.038 5.029-6.798 5.029-6.798 1.091-4.947-3.363-8.316-3.363-8.316z"
     fill="url(#b)"
     id="path14" /><radialGradient
     id="c"
     cx="68.424"
     cy="63.749"
     r="53.669"
     gradientUnits="userSpaceOnUse"><stop
       stop-color="#EE785F"
       offset=".186"
       id="stop16" /><stop
       stop-color="#A2452D"
       offset=".576"
       id="stop18" /><stop
       stop-color="#5D2013"
       offset="1"
       id="stop20" /></radialGradient><path
     d="M 41.683015,50.777574 C 54.801148,32.648928 77.602457,37.481266 77.602457,37.481266 c 11.784558,1.55603 17.590132,8.632677 17.590132,8.632677 5.840101,9.939383 -12.371058,13.766117 -12.371058,13.766117 -10.936529,4.458147 -5.996,15.249955 -5.996,15.249955 C 80.537399,89.489867 106.219,83.46 106.219,83.46 c 7.74,-7.199 10.985,-5.399 10.985,-5.399 -0.247,0.106 -0.496,0.284 -0.752,0.498 l 0.752,-0.498 0.407,1.525 -1.131,6.635 -7.804,8.586 c -0.35064,1.049196 -0.68534,2.103651 -1.004,3.163 -1.956,6.467 -8.845,6.331 -8.845,6.331 -7.773,-0.601 -12.022,0.178 -12.022,0.178 -3.038,0.175 -23.102,3.824 -23.102,3.824 -13.445,2.188 -22.212,-5.261 -22.212,-5.261 C 36.027,98.468 36.24,72.967 36.24,72.967 37.528103,55.096647 41.683015,50.777574 41.683015,50.777574 Z"
     id="path23"
     inkscape:connector-curvature="0"
     style="fill:url(#c)"
     sodipodi:nodetypes="ccccccccccccccccccc" /><path
     d="M126.09 68.919s.801 4.695-.628 7.089c0 0-1.943 3.888-2.662 6.317 0 0-1.217 3.358-3.477 5.795 0 0-3.183 4.137-4.253 5.523 0 0-1.152 2.27-1.843 2.391 0 0-1.8.576-1.213-4.083 0 0 .479-9.061 2.707-11.472 0 0 2.35-3.408 4.553-5.197 0 0 2.586-2.768 3.482-4.521.001 0 2.342-3.674 3.334-1.842z"
     fill="#B8B8B8"
     id="path25" /></svg>