<svg width="157.59" height="120.4" version="1.1" viewBox="0 0 157.594 120.396" xml:space="preserve" xmlns="http://www.w3.org/2000/svg"><radialGradient id="a" cx="37.624" cy="106.93" r="21.912" gradientTransform="matrix(-1 0 0 1 157.59 0)" gradientUnits="userSpaceOnUse"><stop stop-color="#8D3991" offset=".115"/><stop stop-color="#4C2655" offset=".746"/></radialGradient><path d="M114.72 79.43s-2.853 3.643-4.063 9.949l-5.73 10.778 1.594 4.075 10.038.709 2.896-.355 4.488-5.964-.65-5.67-1.594-5.313 3.069-8.209H114.72z" fill="url(#a)"/><radialGradient id="b" cx="115.82" cy="137.2" r="147.24" gradientTransform="matrix(-1 0 0 1 157.59 0)" gradientUnits="userSpaceOnUse"><stop stop-color="#001F2D" offset=".255"/><stop stop-color="#4D4D4D" offset="1"/></radialGradient><path d="M134.28 68.268s4.73 2.958 4.082 7.986c0 0-.127 3.784-4.413 7.213 0 0-5.289 4.262-4.992 9.939 0 0 1.574 9.465-.013 12.777 0 0-3.892 6.563-9.273 6.859 0 0-13.662.652-21.353 0 0 0-15.733.238-21.412 1.659 0 0-9.464 3.052-11.946 5.694H36.687s-.178-2.967-2.125-6.153c0 0-9.566-19.222-5.935-21.083 0 0 2.835-.531 5.136 4.518 0 0 3.278 5.844 5.139 6.289 0 0 4.606 2.924 3.454-2.393l2.744 1.594 15.238 4.074 14.35-3.896 18.956-4.96h10.45l2.657 1.241s12.613 9.438 15.733-1.455c0 0 .339-2.834-1.704-4.99 0 0-1.587-2.951.854-7.827 0 0 1.757-5.843 1.021-9.019 0 .001 2.263-10.179 11.625-8.067z" fill="url(#b)"/><radialGradient id="c" cx="93.299" cy="48.251" r="61.88" gradientTransform="matrix(-1 0 0 1 157.59 0)" gradientUnits="userSpaceOnUse"><stop stop-color="#EE785F" offset=".186"/><stop stop-color="#A2452D" offset=".576"/><stop stop-color="#5D2013" offset="1"/></radialGradient><path d="M65.314 54.262c-.707 3.926-.703 9.41-.531 12.344.625 10.625 5.085 13.449 18.335 14.5 0 0 19.965 2.271 24.025-1.916 7.074-7.85 10.47-6.351 10.47-6.351a3.304 3.304 0 0 0-.708.569l.708-.569.537 1.49-.537 6.707-7.02 9.241c-.459 1.938-.723 3.236-.723 3.236-1.374 6.621-8.25 7.088-8.25 7.088-7.796.088-11.959 1.24-11.959 1.24-3.013.444-22.675 5.848-22.675 5.848-13.197 3.365-22.588-3.279-22.588-3.279-5.85-4.075-7.673-21.869-7.881-29.5-.001-.033.183-4.664.233-5.523.122-2.064.476-4.787.656-6.219.375-2.969 1.344-8.219 3.094-11.348 1.563-2.794 1.687-4.274 1.728-4.377.116-.294.717-3.263 1.751-5.555.861-1.909 1.634-4.327 2.184-5.186 1.742-2.719 6.303-4.24 8.346-4.972 7.93-2.844 18.191-5.183 20.811-3.875.313.156 3.822 2.397 4.588 5.25 1.032 3.849-.844 8.625-3.969 10.438-1.867 1.083-5.594 2.219-7.344 3.75-1.796 1.572-2.687 3.67-3.281 6.969z" fill="url(#c)"/><path d="M125.65 62.953s1.21 4.607 0 7.116c0 0-1.595 4.046-2.099 6.526 0 0-.912 3.455-2.95 6.082 0 0-2.805 4.4-3.749 5.877 0 0-.944 2.361-1.624 2.539 0 0-1.743.736-1.565-3.959 0 0-.325-9.063 1.683-11.662 0 0 2.038-3.602 4.075-5.582 0 0 2.331-2.979 3.071-4.811 0 .001 2.006-3.868 3.158-2.126z" fill="#B8B8B8"/><path style="stroke:#ff0;stroke-width:5;stroke-linecap:round" d="m 55,48 v 35"/></svg>