<svg width="157.6" height="120.4" version="1.1" viewBox="0 0 157.597 120.396" xml:space="preserve" xmlns="http://www.w3.org/2000/svg"><radialGradient id="a" cx="37.624" cy="106.93" r="21.912" gradientTransform="matrix(-1 0 0 1 157.6 0)" gradientUnits="userSpaceOnUse"><stop stop-color="#8D3991" offset=".115"/><stop stop-color="#4C2655" offset=".746"/></radialGradient><path d="M114.72 79.429s-2.853 3.643-4.063 9.949l-5.73 10.779 1.594 4.074 10.038.709 2.896-.355 4.488-5.963-.65-5.67-1.594-5.314 3.069-8.209H114.72z" fill="url(#a)"/><radialGradient id="b" cx="115.85" cy="138.3" r="152.9" gradientTransform="matrix(-1 0 0 1 157.6 0)" gradientUnits="userSpaceOnUse"><stop stop-color="#001F2D" offset=".255"/><stop stop-color="#4D4D4D" offset="1"/></radialGradient><path d="M133.68 64.728s5.621.998 4.309 8.498c0 0-.434 3.725-4.026 7.822 0 0-5.282 5.277-4.994 12.357 0 0 1.574 9.465-.013 12.777 0 0-3.892 6.563-9.273 6.859 0 0-13.662.652-21.353 0 0 0-15.733.238-21.412 1.66 0 0-9.464 3.051-11.946 5.693H36.698s-.178-2.967-2.125-6.152c0 0-9.566-19.223-5.935-21.084 0 0 2.835-.531 5.136 4.518 0 0 .245 1.344 5.139 6.289 0 0 4.606 2.924 3.454-2.393l2.744 1.594 15.238 4.074 14.35-3.896 18.956-4.959h10.45l2.657 1.24s12.613 9.438 15.733-1.455c0 0 .339-2.834-1.704-4.99 0 0-1.587-2.951.854-7.826 0 0 1.249-5.625 1.021-9.02 0 .001 2.889-13.549 11.014-11.606z" fill="url(#b)"/><radialGradient id="c" cx="-85.262" cy="-76.684" r="191.11" gradientTransform="matrix(-1 0 0 1 157.6 0)" gradientUnits="userSpaceOnUse"><stop stop-color="#001F2D" offset=".255"/><stop stop-color="#4D4D4D" offset=".964"/></radialGradient><path d="M143.66 0s12.719 12.201 13.88 19.877c0 0 1.009 8.303-5.893 9.85 0 0-15.277 2.56-15.587 7.833 0 0-.64 3.73 2.11 10.281 0 0 6.75 17.012-6.125 16.262 0 0-4.625-.313-6.75-15.188 0 0-2.478-6.332-3.585-12.75l-11.396-13.187 6.358-.23s4.576.93 6.437 2.404c0 0 4.73 3.488 5.661 4.884 0 0 1.009.466 2.172-1.161 0 0 5.04-5.739 11.165-5.508 0 0 1.862.234 2.638 1.397 0 0 1.349.424 1.099.591-.356.237 1.007-.481 1.461-1.057 0 0 4.652-3.955.544-7.521 0 0-19.745-13.473-20.364-16.822L143.66 0z" fill="url(#c)"/><radialGradient id="d" cx="41.644" cy="36.969" r="26.336" gradientTransform="matrix(-1 0 0 1 157.6 0)" gradientUnits="userSpaceOnUse"><stop stop-color="#0D051C" offset=".115"/><stop stop-color="#4C2655" offset=".746"/></radialGradient><path d="M119.8 50.89s-3.333 2.001-11.901-11.522c0 0-8.695-11.846-27.119-12.671 0 0-2.691-.169-3.668-1.334 0 0-.526-.718.604-1.652 0 0 1.67-.784 7.658-.538 0 0 19.74-.641 20.871-1.377 0 0 8.903-1.477 12.507 0 0 0 2.539.529 3.126 6.199 0 0 .712 13.229 2.364 17.245-.001-.001.686 6.461-4.442 5.65z" fill="url(#d)"/><path d="M113.82 33.135s-1.089 1.178 1.718 6.879c0 0 3.5 6.111 4.212 8.708 0 0 1.417 3.308 3.13 5.254 0 0 2.419 3.543 2.655 5.229 0 0 .178 1.742 1.065 2.392 0 0 2.952.236 2.362-7.264 0 0-1.302-7.974-8.149-14.705 0 0-2.896-3.188-4.075-5.433 0 0-1.345-2.59-2.918-1.06z" fill="#B8B8B8"/><radialGradient id="e" cx="86.286" cy="62.834" r="51.01" gradientTransform="matrix(-1 0 0 1 157.6 0)" gradientUnits="userSpaceOnUse"><stop stop-color="#EE785F" offset=".186"/><stop stop-color="#A2452D" offset=".576"/><stop stop-color="#5D2013" offset="1"/></radialGradient><path d="M49.182 53.021c14.527-9.213 38.667-3.332 38.667-3.332 11.519 2.439 20.333 12.832 20.333 12.832 6.787 8.193-2.926 10.559-2.926 10.559-6.107 1.455-5.476 6.107-5.476 6.107 1.938 4.361 7.366 0 7.366 0 7.075-7.852 10.465-6.348 10.465-6.348a3.28 3.28 0 0 0-.704.568l.704-.568.544 1.486-.544 6.711-7.017 9.238c-.457 1.939-.72 3.238-.72 3.238-1.377 6.619-8.253 7.088-8.253 7.088-7.793.088-11.957 1.24-11.957 1.24-3.011.443-22.678 5.844-22.678 5.844-13.199 3.367-22.588-3.275-22.588-3.275-5.844-4.074-7.883-29.498-7.883-29.498.179-14.79 12.667-21.89 12.667-21.89z" fill="url(#e)"/><path d="M125.66 62.953s1.21 4.607 0 7.117c0 0-1.595 4.045-2.099 6.525 0 0-.912 3.455-2.95 6.082 0 0-2.805 4.4-3.749 5.877 0 0-.944 2.361-1.624 2.539 0 0-1.743.736-1.565-3.959 0 0-.325-9.063 1.683-11.662 0 0 2.038-3.602 4.075-5.582 0 0 2.331-2.979 3.071-4.811 0 .001 2.006-3.868 3.158-2.126z" fill="#B8B8B8"/></svg>