<svg width="157.6" height="120.4" version="1.1" viewBox="0 0 157.597 120.396" xml:space="preserve" xmlns="http://www.w3.org/2000/svg"><radialGradient id="a" cx="37.624" cy="106.93" r="21.912" gradientTransform="matrix(-1 0 0 1 157.6 0)" gradientUnits="userSpaceOnUse"><stop stop-color="#8D3991" offset=".115"/><stop stop-color="#4C2655" offset=".746"/></radialGradient><path d="M114.72 79.43s-2.853 3.643-4.063 9.949l-5.73 10.778 1.594 4.075 10.038.709 2.896-.355 4.488-5.964-.65-5.67-1.594-5.313 3.069-8.209H114.72z" fill="url(#a)"/><radialGradient id="b" cx="115.82" cy="137.2" r="147.24" gradientTransform="matrix(-1 0 0 1 157.6 0)" gradientUnits="userSpaceOnUse"><stop stop-color="#001F2D" offset=".255"/><stop stop-color="#4D4D4D" offset="1"/></radialGradient><path d="M134.29 68.268s4.729 1.588 4.082 7.986c0 0-.127 3.784-4.413 7.213 0 0-5.289 4.262-4.992 9.939 0 0 1.574 9.465-.013 12.777 0 0-3.892 6.563-9.273 6.859 0 0-13.662.652-21.353 0 0 0-15.733.238-21.412 1.659 0 0-9.464 3.052-11.946 5.694H36.697s-.178-2.967-2.125-6.153c0 0-9.566-19.222-5.935-21.083 0 0 2.835-.531 5.136 4.518 0 0 .245 1.344 5.139 6.289 0 0 4.606 2.924 3.454-2.393l2.744 1.594 15.238 4.074 14.35-3.896 18.956-4.96h10.45l2.657 1.241s12.613 9.438 15.733-1.455c0 0 .339-2.834-1.704-4.99 0 0-1.587-2.951.854-7.827 0 0 1.249-5.624 1.021-9.019 0 .001 2.263-10.179 11.625-8.067z" fill="url(#b)"/><radialGradient id="c" cx="80.779" cy="58.272" r="52.829" gradientTransform="scale(-1 1) rotate(1.003 -242.633 -8805.305)" gradientUnits="userSpaceOnUse"><stop stop-color="#EE785F" offset=".186"/><stop stop-color="#A2452D" offset=".576"/><stop stop-color="#5D2013" offset="1"/></radialGradient><path d="M48.798 53.205C63.161 43.74 87.4 49.199 87.4 49.199c11.56 2.238 25.492 6.161 25.492 6.161 32.596 3.841-7.679 16.922-7.679 16.922-6.081 1.562-5.368 6.202-5.368 6.202 2.014 4.327 7.365-.129 7.365-.129 6.937-7.974 10.352-6.53 10.352-6.53a3.373 3.373 0 0 0-.693.582l.693-.582.57 1.478-.427 6.719-6.854 9.36c-.423 1.947-.663 3.249-.663 3.249-1.261 6.644-8.128 7.232-8.128 7.232-7.79.224-11.934 1.448-11.934 1.448-3.002.495-22.572 6.239-22.572 6.239-13.139 3.597-22.641-2.881-22.641-2.881-5.914-3.973-8.396-29.356-8.396-29.356-.08-14.792 12.281-22.108 12.281-22.108z" fill="url(#c)"/><path d="M125.66 62.953s1.21 4.607 0 7.116c0 0-1.595 4.046-2.099 6.526 0 0-.912 3.455-2.95 6.082 0 0-2.805 4.4-3.749 5.877 0 0-.944 2.361-1.624 2.539 0 0-1.743.736-1.565-3.959 0 0-.325-9.063 1.683-11.662 0 0 2.038-3.602 4.075-5.582 0 0 2.331-2.979 3.071-4.811 0 .001 2.006-3.868 3.158-2.126z" fill="#B8B8B8"/></svg>