<svg width="157.6" height="124.11" version="1.1" viewBox="0 0 157.601 124.11" xml:space="preserve" xmlns="http://www.w3.org/2000/svg"><radialGradient id="a" cx="111.74" cy="110.67" r="17.192" gradientUnits="userSpaceOnUse"><stop stop-color="#8D3991" offset=".115"/><stop stop-color="#4C2655" offset=".746"/></radialGradient><path d="M111.8 90.098s-3.454 3.077-5.766 9.07l-7.552 9.59.847 4.294 9.753 2.479 2.91.164 5.477-5.069.366-5.694-.626-5.518 4.479-7.53-9.888-1.786z" fill="url(#a)"/><radialGradient id="b" cx="-5.008" cy="125.08" r="150.22" gradientUnits="userSpaceOnUse"><stop stop-color="#001F2D" offset=".255"/><stop stop-color="#4D4D4D" offset="1"/></radialGradient><path d="M133.04 82.585c-8.839-3.738-12.871 5.876-12.871 5.876.162 3.259-2.607 8.697-2.607 8.697-3.266 4.368-2.227 7.552-2.227 7.552 1.627 2.486.791 5.215.791 5.215-5.005 10.162-15.74-1.366-15.74-1.366l-2.396-1.689-10.285-1.856-19.537 1.519-14.813 1.291-14.271-6.716-2.419-2.056c.192 5.432-3.823 1.739-3.823 1.739-1.754-.769-3.941-7.1-3.941-7.1-1.369-5.382-4.253-5.36-4.253-5.36-3.903 1.188 2.098 21.801 2.098 21.801 1.354 3.482 1.001 6.435 1.001 6.435-.243 2.932-1.713 5.016-1.713 5.016h29.534c2.914-2.159 12.771-3.485 12.771-3.485 5.837-.388 21.364 2.169 21.364 2.169 7.451 2.007 21.015 3.792 21.015 3.792 5.35.665 10.344-5.104 10.344-5.104 2.148-2.98 2.28-12.574 2.28-12.574.717-5.638 6.679-8.893 6.679-8.893 4.825-2.614 5.62-6.317 5.62-6.317 1.533-4.837-2.601-8.586-2.601-8.586z" fill="url(#b)"/><radialGradient id="c" cx="66.993" cy="64.416" r="59.629" gradientUnits="userSpaceOnUse"><stop stop-color="#EE785F" offset=".186"/><stop stop-color="#A2452D" offset=".576"/><stop stop-color="#5D2013" offset="1"/></radialGradient><path d="M50.261 55.758c15.931-6.488 38.563 2.98 38.563 2.98 8.676 4.322 18.438 15.47 18.438 15.47 5.224 9.267-3.649 7.961-3.649 7.961-6.27.345-6.474 5.036-6.474 5.036 1.131 4.639 7.249 1.313 7.249 1.313 8.357-6.471 11.429-4.394 11.429-4.394a3.524 3.524 0 0 0-.793.431l.793-.431.267 1.559-1.722 6.509-8.546 7.847a120.53 120.53 0 0 0-1.286 3.06c-2.528 6.268-9.376 5.51-9.376 5.51-7.687-1.298-11.991-.907-11.991-.907-3.041-.092-23.352 1.732-23.352 1.732-13.585.968-21.647-7.235-21.647-7.235-5.029-5.047-2.523-30.427-2.523-30.427 2.798-14.524 14.62-16.014 14.62-16.014z" fill="url(#c)"/><path d="M125.49 75.823s.373 4.748-1.267 7.004c0 0-2.283 3.699-3.218 6.054 0 0-1.515 3.233-3.985 5.46 0 0-3.541 3.831-4.734 5.111 0 0-1.349 2.163-2.049 2.217 0 0-1.847.416-.836-4.173 0 0 1.288-8.978 3.726-11.18 0 0 2.646-3.18 5-4.767 0 0 2.824-2.522 3.875-4.193 0 0 2.663-3.451 3.488-1.533z" fill="#B8B8B8"/></svg>