<?xml version="1.0" encoding="UTF-8"?>
<svg width="157.6" height="120.39" version="1.1" viewBox="0 0 157.601 120.394" xml:space="preserve" xmlns="http://www.w3.org/2000/svg" xmlns:cc="http://creativecommons.org/ns#" xmlns:dc="http://purl.org/dc/elements/1.1/" xmlns:rdf="http://www.w3.org/1999/02/22-rdf-syntax-ns#"><metadata><rdf:RDF><cc:Work rdf:about=""><dc:format>image/svg+xml</dc:format><dc:type rdf:resource="http://purl.org/dc/dcmitype/StillImage"/><dc:title/></cc:Work></rdf:RDF></metadata><radialGradient id="g" cx="3026" cy="-74.644" r="188.48" gradientTransform="matrix(-1 0 0 1 3268.9 0)" gradientUnits="userSpaceOnUse"><stop stop-color="#001F2D" offset=".255"/><stop stop-color="#4D4D4D" offset=".964"/></radialGradient><path d="m136.52 41.672s-0.27757 0.276 1.8944 3.844c0 0 8.771 16.987-4.355 16.986 0 0-3.7079 1.5283-6.5769-12.198 0 0 2.3139-1.943 2.4669-5.431 3.0223-3.7362 5.581-5.2655 6.5706-3.2013z" fill="url(#g)"/><radialGradient id="f" cx="119.04" cy="99.478" r="20.174" gradientUnits="userSpaceOnUse"><stop stop-color="#8D3991" offset=".115"/><stop stop-color="#4C2655" offset=".746"/></radialGradient><path d="M114.73 79.43s-2.853 3.643-4.065 9.949l-5.732 10.774 1.596 4.076 10.04.708 2.892-.352 4.491-5.966-.651-5.67-1.594-5.311 3.069-8.21H114.73z" fill="url(#f)"/><radialGradient id="e" cx="44.424" cy="131.47" r="100.44" gradientUnits="userSpaceOnUse"><stop stop-color="#001F2D" offset=".255"/><stop stop-color="#4D4D4D" offset="1"/></radialGradient><path d="M133.96 63.853s6.792 1.5 4.405 12.397c0 0-.125 3.788-4.409 7.217 0 0-5.289 4.262-4.996 9.936 0 0 1.576 9.465-.011 12.78 0 0-3.891 6.563-9.273 6.858 0 0-13.662.65-21.353 0 0 0-15.733.238-21.412 1.657 0 0-9.464 3.052-11.948 5.695h-28.27s-.178-2.967-2.127-6.15c0 0-9.565-19.223-5.934-21.087 0 0 2.835-.529 5.137 4.521 0 0 3.275 5.844 5.138 6.289 0 0 4.608 2.92 3.456-2.395l2.744 1.594 15.236 4.073 14.35-3.896 18.956-4.958h10.452l2.655 1.237s12.613 9.438 15.733-1.451c0 0 .34-2.831-1.702-4.994 0 0-1.589-2.945.852-7.825 0 0 1.757-5.841 1.021-9.018 0 .002-.161-12.086 11.3-12.48z" fill="url(#e)"/><radialGradient id="a" cx="68.075" cy="60.917" r="53.539" gradientUnits="userSpaceOnUse"><stop stop-color="#EE785F" offset=".186"/><stop stop-color="#A2452D" offset=".576"/><stop stop-color="#5D2013" offset="1"/></radialGradient><path d="M65.314 54.262c-.707 3.926-.703 9.41-.531 12.344.625 10.625 5.085 13.449 18.335 14.5 0 0 19.965 2.271 24.025-1.916 7.074-7.85 10.47-6.351 10.47-6.351a3.304 3.304 0 0 0-.708.569l.708-.569.537 1.49-.537 6.707-7.02 9.241c-.459 1.938-.723 3.236-.723 3.236-1.374 6.621-8.25 7.088-8.25 7.088-7.796.088-11.959 1.24-11.959 1.24-3.013.444-22.675 5.848-22.675 5.848-13.197 3.365-22.588-3.279-22.588-3.279-5.85-4.075-7.673-21.869-7.881-29.5-.001-.033.183-4.664.233-5.523.122-2.064.476-4.787.656-6.219.375-2.969 1.344-8.219 3.094-11.348 1.563-2.794 1.687-4.274 1.728-4.377.116-.294.717-3.263 1.751-5.555.861-1.909 1.634-4.327 2.184-5.186 1.742-2.719 6.303-4.24 8.346-4.972 7.93-2.844 18.191-5.183 20.811-3.875.313.156 3.822 2.397 4.588 5.25 1.032 3.849-.844 8.625-3.969 10.438-1.867 1.083-5.594 2.219-7.344 3.75-1.796 1.572-2.687 3.67-3.281 6.969z" fill="url(#a)"/><path d="M125.66 62.95s1.211 4.606 0 7.117c0 0-1.594 4.045-2.096 6.523 0 0-.918 3.458-2.952 6.087 0 0-2.807 4.399-3.751 5.872 0 0-.944 2.366-1.624 2.544 0 0-1.741.736-1.565-3.959 0 0-.327-9.063 1.683-11.66 0 0 2.038-3.607 4.077-5.581 0 0 2.329-2.984 3.069-4.813 0 0 2.006-3.866 3.159-2.13z" fill="#B8B8B8"/><path d="m55 48v35" stroke="#ff0" stroke-linecap="round" stroke-width="5"/></svg>