<?xml version="1.0" encoding="UTF-8"?>
<svg width="157.6" height="120.39" version="1.1" viewBox="0 0 157.601 120.394" xml:space="preserve" xmlns="http://www.w3.org/2000/svg" xmlns:cc="http://creativecommons.org/ns#" xmlns:dc="http://purl.org/dc/elements/1.1/" xmlns:rdf="http://www.w3.org/1999/02/22-rdf-syntax-ns#"><metadata><rdf:RDF><cc:Work rdf:about=""><dc:format>image/svg+xml</dc:format><dc:type rdf:resource="http://purl.org/dc/dcmitype/StillImage"/></cc:Work></rdf:RDF></metadata><radialGradient id="f" cx="119.04" cy="99.478" r="20.174" gradientUnits="userSpaceOnUse"><stop stop-color="#8D3991" offset=".115"/><stop stop-color="#4C2655" offset=".746"/></radialGradient><path d="M114.73 79.43s-2.853 3.643-4.065 9.949l-5.732 10.774 1.596 4.076 10.04.708 2.892-.352 4.491-5.966-.651-5.67-1.594-5.311 3.069-8.21H114.73z" fill="url(#f)"/><radialGradient id="e" cx="44.357" cy="130.66" r="99.949" gradientUnits="userSpaceOnUse"><stop stop-color="#001F2D" offset=".255"/><stop stop-color="#4D4D4D" offset="1"/></radialGradient><path d="M134.29 68.264s4.73 2.96 4.08 7.986c0 0-.125 3.788-4.409 7.217 0 0-5.289 4.262-4.996 9.936 0 0 1.576 9.465-.011 12.78 0 0-3.891 6.563-9.273 6.858 0 0-13.662.65-21.353 0 0 0-15.733.238-21.412 1.657 0 0-9.464 3.052-11.948 5.695h-28.27s-.178-2.967-2.127-6.15c0 0-9.565-19.223-5.934-21.087 0 0 2.835-.529 5.137 4.521 0 0 3.275 5.844 5.138 6.289 0 0 4.608 2.92 3.456-2.395l2.744 1.594 15.236 4.073 14.35-3.896 18.956-4.958h10.452l2.655 1.237s12.613 9.438 15.733-1.451c0 0 .34-2.831-1.702-4.994 0 0-1.589-2.945.852-7.825 0 0 1.757-5.841 1.021-9.018 0 .002 2.263-10.179 11.625-8.069z" fill="url(#e)"/><radialGradient id="d" cx="68.075" cy="56.984" r="55.682" gradientUnits="userSpaceOnUse"><stop stop-color="#EE785F" offset=".186"/><stop stop-color="#A2452D" offset=".576"/><stop stop-color="#5D2013" offset="1"/></radialGradient><path d="m42.78 45.887c5.9448-14.679 13.975-14.372 20.469-8.2077 5.1528 5.6088 4.9781 9.0001 9.1666 12.52 2.8673 2.3695 6.523 4.0691 10.85 4.4746 7.115 0.667 21.127 2.122 24.17 3.927 8.8675 6.8173-2.183 14.479-2.183 14.479-4.9902 2.0079-5.476 6.107-5.476 6.107 1.94 4.361 7.368 0 7.368 0 7.075-7.85 10.467-6.353 10.467-6.353-0.25959 0.15656-0.49647 0.34802-0.704 0.569l0.704-0.569 0.543 1.494-0.543 6.705-7.017 9.241c-0.458 1.942-0.722 3.237-0.722 3.237-1.377 6.616-8.253 7.085-8.253 7.085-7.793 0.089-11.958 1.242-11.958 1.242-3.012 0.44-22.675 5.844-22.675 5.844-13.199 3.369-22.59-3.276-22.59-3.276-5.843-4.072-7.841-25.862-7.882-33.495-0.052-10.276 4.5971-21.903 6.2651-25.024z" fill="url(#d)"/><path d="M125.66 62.95s1.211 4.606 0 7.117c0 0-1.594 4.045-2.096 6.523 0 0-.918 3.458-2.952 6.087 0 0-2.807 4.399-3.751 5.872 0 0-.944 2.366-1.624 2.544 0 0-1.741.736-1.565-3.959 0 0-.327-9.063 1.683-11.66 0 0 2.038-3.607 4.077-5.581 0 0 2.329-2.984 3.069-4.813 0 0 2.006-3.866 3.159-2.13z" fill="#B8B8B8"/><path d="m55 48v35" stroke="#ff0" stroke-linecap="round" stroke-width="5"/></svg>