<?xml version="1.0" encoding="UTF-8"?>
<svg width="157.6" height="131.69" version="1.1" viewBox="0 0 157.601 131.686" xml:space="preserve" xmlns="http://www.w3.org/2000/svg" xmlns:cc="http://creativecommons.org/ns#" xmlns:dc="http://purl.org/dc/elements/1.1/" xmlns:rdf="http://www.w3.org/1999/02/22-rdf-syntax-ns#"><metadata><rdf:RDF><cc:Work rdf:about=""><dc:format>image/svg+xml</dc:format><dc:type rdf:resource="http://purl.org/dc/dcmitype/StillImage"/></cc:Work></rdf:RDF></metadata><radialGradient id="f" cx="111.33" cy="117.19" r="17.589" gradientUnits="userSpaceOnUse"><stop stop-color="#8D3991" offset=".115"/><stop stop-color="#4C2655" offset=".746"/></radialGradient><path d="M109.87 97.783s-3.695 2.778-6.499 8.559l-8.326 8.928.486 4.347 9.514 3.287 2.887.405 5.878-4.6.842-5.645-.164-5.546 5.089-7.132-9.707-2.603z" fill="url(#f)"/><radialGradient id="e" cx=".152" cy="186.51" r="186.57" gradientUnits="userSpaceOnUse"><stop stop-color="#001F2D" offset=".255"/><stop stop-color="#4D4D4D" offset="1"/></radialGradient><path d="M131.65 92.07c-8.496-4.468-13.315 4.781-13.315 4.781-.11 3.254-3.32 8.447-3.32 8.447-3.618 4.077-2.85 7.339-2.85 7.339 1.416 2.61.354 5.261.354 5.261-5.833 9.711-15.572-2.668-15.572-2.668l-2.245-1.885-10.099-2.704-19.592-.117-14.869.054-13.662-7.879-2.241-2.256c-.262 5.436-3.956 1.416-3.956 1.416-1.682-.907-3.332-7.402-3.332-7.402-.92-5.471-3.794-5.691-3.794-5.691-3.991.854.275 21.897.275 21.897 1.057 3.586.459 6.495.459 6.495-1.028 4.255-4.336 7.317-4.336 7.317h31.644c3.086-1.91 13.016-2.412 13.016-2.412 5.852.104 21.113 3.945 21.113 3.945 7.258 2.618 20.625 5.523 20.625 5.523 5.275 1.114 10.732-4.226 10.732-4.226 2.387-2.788 3.318-12.339 3.318-12.339 1.185-5.561 7.396-8.303 7.396-8.303 5.026-2.209 6.129-5.83 6.129-5.83 1.931-4.689-1.878-8.763-1.878-8.763z" fill="url(#e)"/><radialGradient id="d" cx="64.378" cy="72.694" r="50.567" gradientUnits="userSpaceOnUse"><stop stop-color="#EE785F" offset=".186"/><stop stop-color="#A2452D" offset=".576"/><stop stop-color="#5D2013" offset="1"/></radialGradient><path d="m42.521 48.376c1.657-3.1432 1.6378-6.7023 2.7759-9.0565 5.2973-10.958 15.479-9.2251 15.479-9.2251 10.259-0.09946 11.367 4.7212 11.367 4.7212 2.8577 6.3141-5.2874 14.732-5.2874 14.732-9.4326 26.85 3.7835 39.202 3.7835 39.202 8.2379 7.2777 31.974 6.8382 31.974 6.8382 8.865-5.751 11.752-3.422 11.752-3.422-0.29134 0.08342-0.56967 0.20694-0.827 0.367l0.827-0.367 0.139 1.576-2.259 6.339-9.17 7.11c-0.946 1.758-1.536 2.941-1.536 2.941-3.042 6.033-9.804 4.71-9.804 4.71-7.552-1.932-11.87-1.896-11.87-1.896-3.025-0.353-23.416-0.225-23.416-0.225-13.622-0.163-20.973-9.014-20.973-9.014-8.525-9.25-3.1356-33.88-3.1356-33.88 3.8017-13.258 10.181-21.451 10.181-21.451z" fill="url(#d)"/><path d="M124.7 84.696s-.021 4.764-1.843 6.876c0 0-2.586 3.493-3.713 5.763 0 0-1.777 3.095-4.426 5.107 0 0-3.849 3.525-5.144 4.706 0 0-1.522 2.035-2.227 2.031 0 0-1.873.264-.487-4.222 0 0 2.033-8.847 4.644-10.832 0 0 2.901-2.952 5.38-4.336 0 0 3.024-2.28 4.212-3.855.001.001 2.943-3.215 3.604-1.238z" fill="#B8B8B8"/><path d="m55 48v35" stroke="#ff0" stroke-linecap="round" stroke-width="5"/></svg>