<svg width="157.6" height="120.4" version="1.1" viewBox="0 0 157.597 120.396" xml:space="preserve" xmlns="http://www.w3.org/2000/svg"><radialGradient id="a" cx="37.624" cy="106.93" r="21.912" gradientTransform="matrix(-1 0 0 1 157.6 0)" gradientUnits="userSpaceOnUse"><stop stop-color="#8D3991" offset=".115"/><stop stop-color="#4C2655" offset=".746"/></radialGradient><path d="M114.72 79.429s-2.853 3.643-4.063 9.949l-5.73 10.779 1.594 4.074 10.038.709 2.896-.355 4.488-5.963-.65-5.67-1.594-5.314 3.069-8.209H114.72z" fill="url(#a)"/><radialGradient id="b" cx="115.85" cy="138.3" r="152.9" gradientTransform="matrix(-1 0 0 1 157.6 0)" gradientUnits="userSpaceOnUse"><stop stop-color="#001F2D" offset=".255"/><stop stop-color="#4D4D4D" offset="1"/></radialGradient><path d="M133.68 64.728s5.621.998 4.309 8.498c0 0-.434 3.725-4.026 7.822 0 0-5.282 5.277-4.994 12.357 0 0 1.574 9.465-.013 12.777 0 0-3.892 6.563-9.273 6.859 0 0-13.662.652-21.353 0 0 0-15.733.238-21.412 1.66 0 0-9.464 3.051-11.946 5.693H36.698s-.178-2.967-2.125-6.152c0 0-9.566-19.223-5.935-21.084 0 0 2.835-.531 5.136 4.518 0 0 .245 1.344 5.139 6.289 0 0 4.606 2.924 3.454-2.393l2.744 1.594 15.238 4.074 14.35-3.896 18.956-4.959h10.45l2.657 1.24s12.613 9.438 15.733-1.455c0 0 .339-2.834-1.704-4.99 0 0-1.587-2.951.854-7.826 0 0 1.249-5.625 1.021-9.02 0 .001 2.889-13.549 11.014-11.606z" fill="url(#b)"/><radialGradient id="c" cx="-85.262" cy="-76.684" r="191.11" gradientTransform="matrix(-1 0 0 1 157.6 0)" gradientUnits="userSpaceOnUse"><stop stop-color="#001F2D" offset=".255"/><stop stop-color="#4D4D4D" offset=".964"/></radialGradient><radialGradient id="d" cx="41.644" cy="36.969" r="26.336" gradientTransform="matrix(-1 0 0 1 157.6 0)" gradientUnits="userSpaceOnUse"><stop stop-color="#0D051C" offset=".115"/><stop stop-color="#4C2655" offset=".746"/></radialGradient><radialGradient id="e" cx="86.286" cy="62.834" r="51.01" gradientTransform="matrix(-1 0 0 1 157.6 0)" gradientUnits="userSpaceOnUse"><stop stop-color="#EE785F" offset=".186"/><stop stop-color="#A2452D" offset=".576"/><stop stop-color="#5D2013" offset="1"/></radialGradient><path d="M49.182 53.021c14.527-9.213 38.667-3.332 38.667-3.332 11.519 2.439 20.333 12.832 20.333 12.832 6.787 8.193-2.926 10.559-2.926 10.559-6.107 1.455-5.476 6.107-5.476 6.107 1.938 4.361 7.366 0 7.366 0 7.075-7.852 10.465-6.348 10.465-6.348a3.28 3.28 0 0 0-.704.568l.704-.568.544 1.486-.544 6.711-7.017 9.238c-.457 1.939-.72 3.238-.72 3.238-1.377 6.619-8.253 7.088-8.253 7.088-7.793.088-11.957 1.24-11.957 1.24-3.011.443-22.678 5.844-22.678 5.844-13.199 3.367-22.588-3.275-22.588-3.275-5.844-4.074-7.883-29.498-7.883-29.498.179-14.79 12.667-21.89 12.667-21.89z" fill="url(#e)"/><path d="M125.66 62.953s1.21 4.607 0 7.117c0 0-1.595 4.045-2.099 6.525 0 0-.912 3.455-2.95 6.082 0 0-2.805 4.4-3.749 5.877 0 0-.944 2.361-1.624 2.539 0 0-1.743.736-1.565-3.959 0 0-.325-9.063 1.683-11.662 0 0 2.038-3.602 4.075-5.582 0 0 2.331-2.979 3.071-4.811 0 .001 2.006-3.868 3.158-2.126z" fill="#B8B8B8"/><path d="m 136.52312,41.671999 c 0,0 -0.27757,0.276001 1.89443,3.844001 0,0 8.38845,19.213 -4.73755,19.212 0,0 -3.32536,-0.697696 -6.19436,-14.423696 0,0 2.31391,-1.942958 2.46691,-5.430958 3.0223,-3.736175 5.58099,-5.265531 6.57057,-3.201347 z" fill="url(#b)"/></svg>