<?xml version="1.0" encoding="UTF-8" standalone="no"?>
<svg
   xmlns:dc="http://purl.org/dc/elements/1.1/"
   xmlns:cc="http://creativecommons.org/ns#"
   xmlns:rdf="http://www.w3.org/1999/02/22-rdf-syntax-ns#"
   xmlns:svg="http://www.w3.org/2000/svg"
   xmlns="http://www.w3.org/2000/svg"
   xmlns:sodipodi="http://sodipodi.sourceforge.net/DTD/sodipodi-0.dtd"
   xmlns:inkscape="http://www.inkscape.org/namespaces/inkscape"
   width="157.6"
   height="120.39"
   version="1.1"
   viewBox="0 0 157.601 120.394"
   xml:space="preserve"
   id="svg29"
   sodipodi:docname="speech0b.svg"
   inkscape:version="0.92.1 r15371"><metadata
     id="metadata35"><rdf:RDF><cc:Work
         rdf:about=""><dc:format>image/svg+xml</dc:format><dc:type
           rdf:resource="http://purl.org/dc/dcmitype/StillImage" /></cc:Work></rdf:RDF></metadata><defs
     id="defs33" /><sodipodi:namedview
     pagecolor="#ffffff"
     bordercolor="#666666"
     borderopacity="1"
     objecttolerance="10"
     gridtolerance="10"
     guidetolerance="10"
     inkscape:pageopacity="0"
     inkscape:pageshadow="2"
     inkscape:window-width="919"
     inkscape:window-height="1008"
     id="namedview31"
     showgrid="false"
     inkscape:zoom="3.5913704"
     inkscape:cx="78.800003"
     inkscape:cy="60.195"
     inkscape:window-x="979"
     inkscape:window-y="40"
     inkscape:window-maximized="0"
     inkscape:current-layer="svg29" /><radialGradient
     id="a"
     cx="119.04"
     cy="99.478"
     r="20.174"
     gradientUnits="userSpaceOnUse"><stop
       stop-color="#8D3991"
       offset=".115"
       id="stop2" /><stop
       stop-color="#4C2655"
       offset=".746"
       id="stop4" /></radialGradient><path
     d="M114.73 79.43s-2.853 3.643-4.065 9.949l-5.732 10.774 1.596 4.076 10.04.708 2.892-.352 4.491-5.966-.651-5.67-1.594-5.311 3.069-8.21H114.73z"
     fill="url(#a)"
     id="path7" /><radialGradient
     id="b"
     cx="44.357"
     cy="130.66"
     r="99.949"
     gradientUnits="userSpaceOnUse"><stop
       stop-color="#001F2D"
       offset=".255"
       id="stop9" /><stop
       stop-color="#4D4D4D"
       offset="1"
       id="stop11" /></radialGradient><path
     d="M134.29 68.264s4.73 2.96 4.08 7.986c0 0-.125 3.788-4.409 7.217 0 0-5.289 4.262-4.996 9.936 0 0 1.576 9.465-.011 12.78 0 0-3.891 6.563-9.273 6.858 0 0-13.662.65-21.353 0 0 0-15.733.238-21.412 1.657 0 0-9.464 3.052-11.948 5.695h-28.27s-.178-2.967-2.127-6.15c0 0-9.565-19.223-5.934-21.087 0 0 2.835-.529 5.137 4.521 0 0 3.275 5.844 5.138 6.289 0 0 4.608 2.92 3.456-2.395l2.744 1.594 15.236 4.073 14.35-3.896 18.956-4.958h10.452l2.655 1.237s12.613 9.438 15.733-1.451c0 0 .34-2.831-1.702-4.994 0 0-1.589-2.945.852-7.825 0 0 1.757-5.841 1.021-9.018 0 .002 2.263-10.179 11.625-8.069z"
     fill="url(#b)"
     id="path14" /><radialGradient
     id="c"
     cx="68.075"
     cy="56.984"
     r="55.682"
     gradientUnits="userSpaceOnUse"><stop
       stop-color="#EE785F"
       offset=".186"
       id="stop16" /><stop
       stop-color="#A2452D"
       offset=".576"
       id="stop18" /><stop
       stop-color="#5D2013"
       offset="1"
       id="stop20" /></radialGradient><path
     d="m 42.780066,45.886734 c 5.94478,-14.678979 13.975028,-14.372163 20.46938,-8.207684 5.152761,5.608759 4.978071,9.000094 9.166633,12.520178 2.867324,2.3695 6.522972,4.069089 10.849648,4.474573 7.115,0.667 21.127273,2.122 24.170273,3.927 8.86754,6.817273 -2.183,14.479199 -2.183,14.479199 -4.99018,2.007909 -5.476,6.107 -5.476,6.107 1.94,4.361 7.368,0 7.368,0 7.075,-7.85 10.467,-6.353 10.467,-6.353 -0.25959,0.156564 -0.49647,0.348017 -0.704,0.569 l 0.704,-0.569 0.543,1.494 -0.543,6.705 -7.017,9.241 c -0.458,1.942 -0.722,3.237 -0.722,3.237 -1.377,6.616 -8.253,7.085 -8.253,7.085 -7.793,0.089 -11.958,1.242 -11.958,1.242 -3.012,0.44 -22.675,5.844 -22.675,5.844 -13.199,3.369 -22.59,-3.276 -22.59,-3.276 -5.843,-4.072 -7.841,-25.862133 -7.882,-33.495133 -0.052,-10.276 4.597066,-21.903133 6.265066,-25.024133 z"
     id="path23"
     inkscape:connector-curvature="0"
     style="fill:url(#c)"
     sodipodi:nodetypes="ccccccccccccccccccccc" /><path
     d="M125.66 62.95s1.211 4.606 0 7.117c0 0-1.594 4.045-2.096 6.523 0 0-.918 3.458-2.952 6.087 0 0-2.807 4.399-3.751 5.872 0 0-.944 2.366-1.624 2.544 0 0-1.741.736-1.565-3.959 0 0-.327-9.063 1.683-11.66 0 0 2.038-3.607 4.077-5.581 0 0 2.329-2.984 3.069-4.813 0 0 2.006-3.866 3.159-2.13z"
     fill="#B8B8B8"
     id="path25" /><path
     style="stroke:#ff0;stroke-width:5;stroke-linecap:round"
     d="m 55,48 v 35"
     id="path27" /></svg>