<?xml version="1.0" encoding="UTF-8" standalone="no"?>
<svg
   xmlns:dc="http://purl.org/dc/elements/1.1/"
   xmlns:cc="http://creativecommons.org/ns#"
   xmlns:rdf="http://www.w3.org/1999/02/22-rdf-syntax-ns#"
   xmlns:svg="http://www.w3.org/2000/svg"
   xmlns="http://www.w3.org/2000/svg"
   xmlns:xlink="http://www.w3.org/1999/xlink"
   xmlns:sodipodi="http://sodipodi.sourceforge.net/DTD/sodipodi-0.dtd"
   xmlns:inkscape="http://www.inkscape.org/namespaces/inkscape"
   width="157.6"
   height="124.11"
   version="1.1"
   viewBox="0 0 157.601 124.11"
   xml:space="preserve"
   id="svg27"
   sodipodi:docname="speech0a.svg"
   inkscape:version="0.92.1 r15371"><metadata
     id="metadata33"><rdf:RDF><cc:Work
         rdf:about=""><dc:format>image/svg+xml</dc:format><dc:type
           rdf:resource="http://purl.org/dc/dcmitype/StillImage" /></cc:Work></rdf:RDF></metadata><defs
     id="defs31"><radialGradient
       inkscape:collect="always"
       xlink:href="#b"
       id="radialGradient907"
       gradientUnits="userSpaceOnUse"
       cx="66.992996"
       cy="64.416"
       r="59.629002" /></defs><sodipodi:namedview
     pagecolor="#ffffff"
     bordercolor="#666666"
     borderopacity="1"
     objecttolerance="10"
     gridtolerance="10"
     guidetolerance="10"
     inkscape:pageopacity="0"
     inkscape:pageshadow="2"
     inkscape:window-width="858"
     inkscape:window-height="763"
     id="namedview29"
     showgrid="false"
     inkscape:zoom="3.5913704"
     inkscape:cx="68.54112"
     inkscape:cy="62.755377"
     inkscape:window-x="1048"
     inkscape:window-y="273"
     inkscape:window-maximized="0"
     inkscape:current-layer="svg27" /><radialGradient
     id="a"
     cx="111.74"
     cy="110.67"
     r="17.192"
     gradientUnits="userSpaceOnUse"><stop
       stop-color="#8D3991"
       offset=".115"
       id="stop2" /><stop
       stop-color="#4C2655"
       offset=".746"
       id="stop4" /></radialGradient><path
     d="M111.8 90.098s-3.454 3.077-5.766 9.07l-7.552 9.59.847 4.294 9.753 2.479 2.91.164 5.477-5.069.366-5.694-.626-5.518 4.479-7.53-9.888-1.786z"
     fill="url(#a)"
     id="path7" /><radialGradient
     id="b"
     cx="-5.008"
     cy="125.08"
     r="150.22"
     gradientUnits="userSpaceOnUse"><stop
       stop-color="#001F2D"
       offset=".255"
       id="stop9" /><stop
       stop-color="#4D4D4D"
       offset="1"
       id="stop11" /></radialGradient><path
     d="M133.04 82.585c-8.839-3.738-12.871 5.876-12.871 5.876.162 3.259-2.607 8.697-2.607 8.697-3.266 4.368-2.227 7.552-2.227 7.552 1.627 2.486.791 5.215.791 5.215-5.005 10.162-15.74-1.366-15.74-1.366l-2.396-1.689-10.285-1.856-19.537 1.519-14.813 1.291-14.271-6.716-2.419-2.056c.192 5.432-3.823 1.739-3.823 1.739-1.754-.769-3.941-7.1-3.941-7.1-1.369-5.382-4.253-5.36-4.253-5.36-3.903 1.188 2.098 21.801 2.098 21.801 1.354 3.482 1.001 6.435 1.001 6.435-.243 2.932-1.713 5.016-1.713 5.016h29.534c2.914-2.159 12.771-3.485 12.771-3.485 5.837-.388 21.364 2.169 21.364 2.169 7.451 2.007 21.015 3.792 21.015 3.792 5.35.665 10.344-5.104 10.344-5.104 2.148-2.98 2.28-12.574 2.28-12.574.717-5.638 6.679-8.893 6.679-8.893 4.825-2.614 5.62-6.317 5.62-6.317 1.533-4.837-2.601-8.586-2.601-8.586z"
     fill="url(#b)"
     id="path14" /><radialGradient
     id="c-3"
     cx="66.993"
     cy="64.416"
     r="59.629"
     gradientUnits="userSpaceOnUse"><stop
       stop-color="#EE785F"
       offset=".186"
       id="stop16" /><stop
       stop-color="#A2452D"
       offset=".576"
       id="stop18" /><stop
       stop-color="#5D2013"
       offset="1"
       id="stop20" /></radialGradient><path
     d="m 45.805848,38.772733 c 8.691378,-12.05694 18.793263,-10.107009 18.793263,-10.107009 13.96649,0.145295 11.755273,7.951931 11.755273,7.951931 C 76.17647,44.493263 68.767416,42.76182 65.82056,51.662856 63.689505,58.099748 64.351973,65.740627 64.351973,65.740627 63.92936,80.564871 71.243429,86.926553 71.243429,86.926553 79.057157,92.957788 104.388,88.518 104.388,88.518 c 8.357,-5.635659 11.429,-4.394 11.429,-4.394 -0.28171,0.109083 -0.54823,0.253937 -0.793,0.431 l 0.793,-0.431 0.267,1.559 -1.722,6.509 -8.546,7.847 c -0.44269,1.01405 -0.8714,2.03415 -1.286,3.06 -2.528,6.268 -9.376,5.51 -9.376,5.51 -7.687,-1.298 -11.991,-0.907 -11.991,-0.907 -3.041,-0.092 -23.352,1.732 -23.352,1.732 -13.585,0.968 -21.647,-7.235 -21.647,-7.235 C 33.135,97.152 35.362553,68.152189 35.362553,68.152189 35.376083,52.235954 45.805848,38.772733 45.805848,38.772733 Z"
     id="path23"
     inkscape:connector-curvature="0"
     style="fill:url(#c-3)"
     sodipodi:nodetypes="cccscccccccccccccccc" /><path
     d="M125.49 75.823s.373 4.748-1.267 7.004c0 0-2.283 3.699-3.218 6.054 0 0-1.515 3.233-3.985 5.46 0 0-3.541 3.831-4.734 5.111 0 0-1.349 2.163-2.049 2.217 0 0-1.847.416-.836-4.173 0 0 1.288-8.978 3.726-11.18 0 0 2.646-3.18 5-4.767 0 0 2.824-2.522 3.875-4.193 0 0 2.663-3.451 3.488-1.533z"
     fill="#B8B8B8"
     id="path25" /><path style="stroke:#ff0;stroke-width:5;stroke-linecap:round" d="m 55,48 v 35"/></svg>