<?xml version="1.0" encoding="UTF-8"?>
<svg width="157.6" height="124.11" version="1.1" viewBox="0 0 157.601 124.11" xml:space="preserve" xmlns="http://www.w3.org/2000/svg" xmlns:cc="http://creativecommons.org/ns#" xmlns:dc="http://purl.org/dc/elements/1.1/" xmlns:rdf="http://www.w3.org/1999/02/22-rdf-syntax-ns#"><metadata><rdf:RDF><cc:Work rdf:about=""><dc:format>image/svg+xml</dc:format><dc:type rdf:resource="http://purl.org/dc/dcmitype/StillImage"/><dc:title/></cc:Work></rdf:RDF></metadata><defs><radialGradient id="d" cx="3026" cy="-74.644" r="188.48" gradientTransform="matrix(-.99997 0 0 .99997 3255.9 -55.879)" gradientUnits="userSpaceOnUse"><stop stop-color="#001F2D" offset=".255"/><stop stop-color="#4D4D4D" offset=".964"/></radialGradient></defs><radialGradient id="f" cx="111.74" cy="110.66" r="17.191" gradientUnits="userSpaceOnUse"><stop stop-color="#8D3991" offset=".115"/><stop stop-color="#4C2655" offset=".746"/></radialGradient><path d="M111.8 90.098s-3.454 3.077-5.766 9.07l-7.552 9.59.847 4.294 9.753 2.479 2.91.164 5.477-5.069.366-5.694-.626-5.518 4.479-7.53-9.888-1.786z" fill="url(#f)"/><radialGradient id="e" cx="-5.287" cy="125.27" r="151.71" gradientUnits="userSpaceOnUse"><stop stop-color="#001F2D" offset=".255"/><stop stop-color="#4D4D4D" offset="1"/></radialGradient><path d="M134.68 74.867c-12.136-6.609-14.518 13.594-14.518 13.594.162 3.259-2.607 8.697-2.607 8.697-3.266 4.368-2.227 7.552-2.227 7.552 1.627 2.486.791 5.215.791 5.215-5.005 10.162-15.74-1.366-15.74-1.366l-2.396-1.689-10.285-1.856-19.537 1.519-14.813 1.291-14.271-6.716-2.419-2.056c.192 5.432-3.823 1.739-3.823 1.739-1.754-.769-3.941-7.1-3.941-7.1-1.369-5.382-4.253-5.36-4.253-5.36-3.903 1.188 2.098 21.801 2.098 21.801 1.354 3.482 1.001 6.435 1.001 6.435-.243 2.932-1.713 5.016-1.713 5.016h29.534c2.914-2.159 12.771-3.485 12.771-3.485 5.837-.388 21.364 2.169 21.364 2.169 7.451 2.007 21.015 3.792 21.015 3.792 5.35.665 10.344-5.104 10.344-5.104 2.148-2.98 2.28-12.574 2.28-12.574.717-5.638 6.711-9.954 6.711-9.954 3.947-4.023 4.833-6.326 4.833-6.326 5.075-13.053-.199-15.234-.199-15.234z" fill="url(#e)"/><radialGradient id="c" cx="66.993" cy="64.416" r="59.629" gradientUnits="userSpaceOnUse"><stop stop-color="#EE785F" offset=".186"/><stop stop-color="#A2452D" offset=".576"/><stop stop-color="#5D2013" offset="1"/></radialGradient><path d="m42.544 48.766c0.86091-12.313 4.1802-13.832 4.1802-13.832 10.325-9.7451 28.015-7.5422 28.015-7.5422 15.477 6.4386 0.09271 16.451 0.09271 16.451-8.6431 5.7334-11.519 14.756-11.488 21.579 0.03787 8.3137 5.3718 16.966 5.3718 16.966 6.5406 12.25 35.672 6.1309 35.672 6.1309 8.357-5.6357 11.429-4.394 11.429-4.394-0.28171 0.10908-0.54823 0.25394-0.793 0.431l0.793-0.431 0.267 1.559-1.722 6.509-8.546 7.847c-0.44269 1.014-0.8714 2.0342-1.286 3.06-2.528 6.268-9.376 5.51-9.376 5.51-7.687-1.298-11.991-0.907-11.991-0.907-3.041-0.092-23.352 1.732-23.352 1.732-13.585 0.968-21.647-7.235-21.647-7.235-5.029-5.047-4.4721-26.529-4.4721-26.529 0.01353-15.916 8.8523-26.905 8.8523-26.905z" fill="url(#c)"/><path d="M125.49 75.823s.373 4.748-1.267 7.004c0 0-2.283 3.699-3.218 6.054 0 0-1.515 3.233-3.985 5.46 0 0-3.541 3.831-4.734 5.111 0 0-1.349 2.163-2.049 2.217 0 0-1.847.416-.836-4.173 0 0 1.288-8.978 3.726-11.18 0 0 2.646-3.18 5-4.767 0 0 2.824-2.522 3.875-4.193 0 0 2.663-3.451 3.488-1.533z" fill="#B8B8B8"/><path d="m53 48v35" stroke="#ff0" stroke-linecap="round" stroke-width="5"/><path d="m137.09 41.793c1.8513 3.6319 3.5726 7.4174 4.1938 10.864 0.67384 3.9662 0.59637 5.8712-0.70492 7.7732-1.0709 1.5653-3.002 2.1478-6.4797 2.1036 0 0-3.973 0.82115-6.0464-12.109 0 0 2.3138-1.9429 2.4668-5.4308 3.0222-3.7361 5.5808-5.2654 6.5704-3.2013z" fill="url(#d)" stroke-width=".99997"/></svg>