<svg width="157.6" height="120.4" version="1.1" viewBox="0 0 157.597 120.396" xml:space="preserve" xmlns="http://www.w3.org/2000/svg"><radialGradient id="a" cx="37.624" cy="106.93" r="21.912" gradientTransform="matrix(-1 0 0 1 157.6 0)" gradientUnits="userSpaceOnUse"><stop stop-color="#8D3991" offset=".115"/><stop stop-color="#4C2655" offset=".746"/></radialGradient><path d="M114.72 79.43s-2.853 3.643-4.063 9.949l-5.73 10.778 1.594 4.075 10.038.709 2.896-.355 4.488-5.964-.65-5.67-1.594-5.313 3.069-8.209H114.72z" fill="url(#a)"/><radialGradient id="b" cx="115.82" cy="137.2" r="147.24" gradientTransform="matrix(-1 0 0 1 157.6 0)" gradientUnits="userSpaceOnUse"><stop stop-color="#001F2D" offset=".255"/><stop stop-color="#4D4D4D" offset="1"/></radialGradient><path d="M134.29 68.268s4.73 2.958 4.082 7.986c0 0-.127 3.784-4.413 7.213 0 0-5.289 4.262-4.992 9.939 0 0 1.574 9.465-.013 12.777 0 0-3.892 6.563-9.273 6.859 0 0-13.662.652-21.353 0 0 0-15.733.238-21.412 1.659 0 0-9.464 3.052-11.946 5.694H36.697s-.178-2.967-2.125-6.153c0 0-9.566-19.222-5.935-21.083 0 0 2.835-.531 5.136 4.518 0 0 3.278 5.844 5.139 6.289 0 0 4.606 2.924 3.454-2.393l2.744 1.594 15.238 4.074 14.35-3.896 18.956-4.96h10.45l2.657 1.241s12.613 9.438 15.733-1.455c0 0 .339-2.834-1.704-4.99 0 0-1.587-2.951.854-7.827 0 0 1.757-5.843 1.021-9.019 0 .001 2.263-10.179 11.625-8.067z" fill="url(#b)"/><radialGradient id="c" cx="94.227" cy="58.586" r="58.181" gradientTransform="matrix(-1 0 0 1 157.6 0)" gradientUnits="userSpaceOnUse"><stop stop-color="#EE785F" offset=".149"/><stop stop-color="#A2452D" offset=".576"/><stop stop-color="#5D2013" offset="1"/></radialGradient><path d="M37.502 83.401c-.407-3.13-.124-5.512-.124-5.512.674-4.976 1.031-8.161 5.867-11.733 10.604-7.832 27.13-1.564 39.242-2.924 3.608-.405 10.153-.834 13.146-2.977 3.242-2.326 2.874-7.056 2.835-10.881-.003-.227-.003-.452-.003-.673a20.28 20.28 0 0 1 .039-1.327c.24-3.765 2.068-6.1 5.869-6.612.206-.028.403-.042.61-.05.063-.004.12 0 .183 0 .147-.004.288 0 .433.009.062.005.126.007.189.015.162.016.322.037.484.065.037.005.072.009.11.019.199.035.392.081.59.139.043.012.086.027.13.041.151.047.303.101.454.158.057.018.113.042.169.063.151.063.297.13.446.202.044.021.083.039.126.061.19.095.383.201.571.316h.002a7.9 7.9 0 0 1 .553.367c.039.025.075.053.116.082a12.765 12.765 0 0 1 .555.426c.366.305.726.639 1.081 1.004l.037.037c.164.171.325.349.485.531.02.021.038.047.061.068.523.604 1.026 1.27 1.507 1.982.007.01.015.02.018.027.156.24.318.487.472.736 2.887 4.676 4.816 11.176 5.225 16.839.068.954.097 1.886.075 2.778v.008a24.92 24.92 0 0 1-.067 1.305c0 .004 0 .004-.002.006-.03.424-.076.842-.132 1.244-.232 1.617-.658 3.033-1.3 4.15a6.124 6.124 0 0 1-1.009 1.326l1.093 4.076.211-.691-.234 2.933-7.019 9.237a115.765 115.765 0 0 0-.722 3.237c-1.377 6.62-8.251 7.089-8.251 7.089-7.797.09-11.957 1.24-11.957 1.24-3.013.443-22.678 5.846-22.678 5.846-13.199 3.367-22.588-3.275-22.588-3.275-3.506-2.444-5.642-12.561-6.79-20.271a24.88 24.88 0 0 1-.107-.731c.001-.001-.001-.005-.001-.005z" fill="url(#c)"/><path d="M125.66 62.953s1.21 4.607 0 7.116c0 0-1.595 4.046-2.099 6.526 0 0-.912 3.455-2.95 6.082 0 0-2.805 4.4-3.749 5.877 0 0-.944 2.361-1.624 2.539 0 0-1.743.736-1.565-3.959 0 0-.325-9.063 1.683-11.662 0 0 2.038-3.602 4.075-5.582 0 0 2.331-2.979 3.071-4.811 0 .001 2.006-3.868 3.158-2.126z" fill="#B8B8B8"/></svg>