<svg width="157.6" height="120.78" version="1.1" viewBox="0 0 157.601 120.784" xml:space="preserve" xmlns="http://www.w3.org/2000/svg"><radialGradient id="a" cx="116.85" cy="105.57" r="19.964" gradientUnits="userSpaceOnUse"><stop stop-color="#8D3991" offset=".115"/><stop stop-color="#4C2655" offset=".746"/></radialGradient><path d="M113.74 84.37s-3.162 3.372-4.927 9.551l-6.657 10.23 1.229 4.197 9.935 1.594 2.915-.1 4.996-5.546-.146-5.705-1.121-5.432 3.783-7.907-10.007-.882z" fill="url(#a)"/><radialGradient id="b" cx="28.454" cy="117.19" r="116.51" gradientUnits="userSpaceOnUse"><stop stop-color="#001F2D" offset=".255"/><stop stop-color="#4D4D4D" offset="1"/></radialGradient><path d="M134.22 74.973c-9.138-2.924-12.291 7.015-12.291 7.015.453 3.227-1.813 8.893-1.813 8.893-2.859 4.643-1.538 7.723-1.538 7.723 1.844 2.326 1.254 5.118 1.254 5.118-4.066 10.575-15.798.061-15.798.061l-2.537-1.469-10.412-.925-19.316 3.269-14.642 2.618-14.816-5.399-2.595-1.836c.679 5.4-3.65 2.078-3.65 2.078-1.815-.608-4.563-6.716-4.563-6.716-1.85-5.232-4.72-4.955-4.72-4.955-3.781 1.533 4.051 21.523 4.051 21.523 1.661 3.348 1.576 6.317 1.576 6.317.167 1.914-.47 2.497-.47 2.497h28.631c2.707-2.415 12.404-4.617 12.404-4.617 5.78-.914 21.474.235 21.474.235 7.602 1.326 21.268 1.885 21.268 1.885 5.39.182 9.845-6.015 9.845-6.015 1.871-3.159 1.14-12.724 1.14-12.724.205-5.685 5.852-9.462 5.852-9.462 4.571-3.038 5.029-6.798 5.029-6.798 1.091-4.947-3.363-8.316-3.363-8.316z" fill="url(#b)"/><radialGradient id="c" cx="68.424" cy="63.749" r="53.669" gradientUnits="userSpaceOnUse"><stop stop-color="#EE785F" offset=".186"/><stop stop-color="#A2452D" offset=".576"/><stop stop-color="#5D2013" offset="1"/></radialGradient><path d="M49.362 55.7c15.284-7.89 38.676-.498 38.676-.498 9.028 3.525 19.756 13.752 19.756 13.752 6.037 8.758-2.92 8.253-2.92 8.253-6.211.914-5.996 5.602-5.996 5.602 1.546 4.515 7.341.651 7.341.651 7.74-7.199 10.985-5.399 10.985-5.399-.247.106-.496.284-.752.498l.752-.498.407 1.525-1.131 6.635-7.804 8.586a109.397 109.397 0 0 0-1.004 3.163c-1.956 6.467-8.845 6.331-8.845 6.331-7.773-.601-12.022.178-12.022.178-3.038.175-23.102 3.824-23.102 3.824-13.445 2.188-22.212-5.261-22.212-5.261-5.464-4.574-5.251-30.075-5.251-30.075C37.725 58.247 49.362 55.7 49.362 55.7z" fill="url(#c)"/><path d="M126.09 68.919s.801 4.695-.628 7.089c0 0-1.943 3.888-2.662 6.317 0 0-1.217 3.358-3.477 5.795 0 0-3.183 4.137-4.253 5.523 0 0-1.152 2.27-1.843 2.391 0 0-1.8.576-1.213-4.083 0 0 .479-9.061 2.707-11.472 0 0 2.35-3.408 4.553-5.197 0 0 2.586-2.768 3.482-4.521.001 0 2.342-3.674 3.334-1.842z" fill="#B8B8B8"/></svg>