<svg width="157.6" height="120.4" version="1.1" viewBox="0 0 157.597 120.396" xml:space="preserve" xmlns="http://www.w3.org/2000/svg"><radialGradient id="a" cx="37.624" cy="106.93" r="21.912" gradientTransform="matrix(-1 0 0 1 157.6 0)" gradientUnits="userSpaceOnUse"><stop stop-color="#8D3991" offset=".115"/><stop stop-color="#4C2655" offset=".746"/></radialGradient><path d="M114.72 79.43s-2.853 3.643-4.063 9.949l-5.73 10.778 1.594 4.075 10.038.709 2.896-.355 4.488-5.964-.65-5.67-1.594-5.313 3.069-8.209H114.72z" fill="url(#a)"/><radialGradient id="b" cx="115.82" cy="137.2" r="147.25" gradientTransform="matrix(-1 0 0 1 157.6 0)" gradientUnits="userSpaceOnUse"><stop stop-color="#001F2D" offset=".255"/><stop stop-color="#4D4D4D" offset="1"/></radialGradient><path d="M134.29 68.268s4.73 2.958 4.082 7.986c0 0-.127 3.784-4.413 7.213 0 0-5.289 4.262-4.992 9.939 0 0 1.574 9.465-.013 12.777 0 0-3.892 6.563-9.273 6.859 0 0-13.662.652-21.353 0 0 0-15.733.238-21.412 1.659 0 0-9.464 3.052-11.946 5.694H36.697s-.178-2.967-2.125-6.153c0 0-9.566-19.222-5.935-21.083 0 0 2.835-.531 5.136 4.518 0 0 3.278 5.844 5.139 6.289 0 0 4.606 2.924 3.454-2.393l2.744 1.594 15.238 4.074 14.35-3.896 18.956-4.96h10.45l2.657 1.241s12.613 9.438 15.733-1.455c0 0 .339-2.834-1.704-4.99 0 0-1.587-2.951.854-7.827 0 0 1.757-5.843 1.021-9.019 0 .001 2.263-10.179 11.625-8.067z" fill="url(#b)"/><radialGradient id="c" cx="98.201" cy="36.283" r="73.326" gradientTransform="matrix(-1 0 0 1 157.6 0)" gradientUnits="userSpaceOnUse"><stop stop-color="#EE785F" offset=".186"/><stop stop-color="#A2452D" offset=".576"/><stop stop-color="#5D2013" offset="1"/></radialGradient><path d="M37.415 68.465c.002-.008.006-.016.006-.022.065-.361.152-.714.261-1.052a.096.096 0 0 0 .013-.027c.11-.335.284-.641.386-.972C41.046 56.762 55.256 55.8 55.256 55.8c6.353-.819 9.29-4.507 9.29-4.507 1.5-1.813 2.25-2.625 3-7.313.825-5.159 1.75-7 1.75-7 2.98-9.543 20.188-8.063 20.188-8.063 10.254 1.044 17.361 9.21 17.361 9.21 1.611 2.11 5.852 7.957 5.852 7.957 8.633 7.756-2.377 7.309-2.377 7.309-2-.125-9.456-.457-9.456-.457-.978.103-1.669.156-2.067.231-7.877 1.429-9.125 5.563-9.125 5.563-2.313 5.063-2.618 14.408-2.618 14.408.11 7.531 3.271 9.637 3.271 9.637 4.834 3.148 11.288-.113 14.999-2.59a.55.55 0 0 0 .07-.049c.488-.324.926-.634 1.306-.911.015-.015.03-.024.047-.036.373-.277.687-.522.932-.719l.043-.031c.234-.191.398-.327.487-.406l.03-.024.05-.042v.003c6.298-6.468 9.324-5.133 9.324-5.133a3.446 3.446 0 0 0-.704.565l.704-.565.545 1.491-.545 6.705-7.016 9.244c-.457 1.938-.721 3.23-.721 3.23-1.377 6.619-8.252 7.088-8.252 7.088-7.794.09-11.958 1.242-11.958 1.242-3.011.445-22.678 5.844-22.678 5.844-13.198 3.369-22.588-3.275-22.588-3.275-5.844-4.076-7.882-29.499-7.882-29.499.028-2.319.359-4.468.897-6.442z" fill="url(#c)"/><path d="M125.66 62.953s1.21 4.607 0 7.116c0 0-1.595 4.046-2.099 6.526 0 0-.912 3.455-2.95 6.082 0 0-2.805 4.4-3.749 5.877 0 0-.944 2.361-1.624 2.539 0 0-1.743.736-1.565-3.959 0 0-.325-9.063 1.683-11.662 0 0 2.038-3.602 4.075-5.582 0 0 2.331-2.979 3.071-4.811 0 .001 2.006-3.868 3.158-2.126z" fill="#B8B8B8"/></svg>