<svg width="157.6" height="120.4" version="1.1" viewBox="0 0 157.597 120.396" xml:space="preserve" xmlns="http://www.w3.org/2000/svg"><radialGradient id="a" cx="37.624" cy="106.93" r="21.912" gradientTransform="matrix(-1 0 0 1 157.6 0)" gradientUnits="userSpaceOnUse"><stop stop-color="#8D3991" offset=".115"/><stop stop-color="#4C2655" offset=".746"/></radialGradient><path d="M114.72 79.43s-2.853 3.643-4.063 9.949l-5.73 10.778 1.594 4.075 10.038.709 2.896-.355 4.488-5.964-.65-5.67-1.594-5.313 3.069-8.209H114.72z" fill="url(#a)"/><radialGradient id="b" cx="115.82" cy="137.2" r="147.24" gradientTransform="matrix(-1 0 0 1 157.6 0)" gradientUnits="userSpaceOnUse"><stop stop-color="#001F2D" offset=".255"/><stop stop-color="#4D4D4D" offset="1"/></radialGradient><path d="M134.29 68.268s4.729 1.588 4.082 7.986c0 0-.127 3.784-4.413 7.213 0 0-5.289 4.262-4.992 9.939 0 0 1.574 9.465-.013 12.777 0 0-3.892 6.563-9.273 6.859 0 0-13.662.652-21.353 0 0 0-15.733.238-21.412 1.659 0 0-9.464 3.052-11.946 5.694H36.697s-.178-2.967-2.125-6.153c0 0-9.566-19.222-5.935-21.083 0 0 2.835-.531 5.136 4.518 0 0 .245 1.344 5.139 6.289 0 0 4.606 2.924 3.454-2.393l2.744 1.594 15.238 4.074 14.35-3.896 18.956-4.96h10.45l2.657 1.241s12.613 9.438 15.733-1.455c0 0 .339-2.834-1.704-4.99 0 0-1.587-2.951.854-7.827 0 0 1.249-5.624 1.021-9.019 0 .001 2.263-10.179 11.625-8.067z" fill="url(#b)"/><radialGradient id="c" cx="86.286" cy="62.833" r="51.011" gradientTransform="matrix(-1 0 0 1 157.6 0)" gradientUnits="userSpaceOnUse"><stop stop-color="#EE785F" offset=".186"/><stop stop-color="#A2452D" offset=".576"/><stop stop-color="#5D2013" offset="1"/></radialGradient><path d="M49.182 53.022c14.527-9.213 38.667-3.333 38.667-3.333 11.518 2.439 20.333 12.833 20.333 12.833 6.787 8.193-2.926 10.559-2.926 10.559-6.107 1.455-5.476 6.107-5.476 6.107 1.938 4.361 7.366 0 7.366 0 7.075-7.852 10.465-6.349 10.465-6.349-.234.136-.47.327-.704.569l.704-.569.544 1.487-.544 6.71-7.017 9.239c-.457 1.939-.72 3.237-.72 3.237-1.377 6.62-8.253 7.089-8.253 7.089-7.793.088-11.957 1.24-11.957 1.24-3.011.442-22.678 5.844-22.678 5.844-13.199 3.367-22.588-3.275-22.588-3.275-5.844-4.075-7.883-29.498-7.883-29.498.179-14.791 12.667-21.89 12.667-21.89z" fill="url(#c)"/><path d="M125.66 62.953s1.21 4.607 0 7.116c0 0-1.595 4.046-2.099 6.526 0 0-.912 3.455-2.95 6.082 0 0-2.805 4.4-3.749 5.877 0 0-.944 2.361-1.624 2.539 0 0-1.743.736-1.565-3.959 0 0-.325-9.063 1.683-11.662 0 0 2.038-3.602 4.075-5.582 0 0 2.331-2.979 3.071-4.811 0 .001 2.006-3.868 3.158-2.126z" fill="#B8B8B8"/><path d="m 54,65 h 40" style="stroke:#00f;stroke-width:5;stroke-linecap:round"/></svg>