<svg width="157.6" height="120.39" version="1.1" viewBox="0 0 157.601 120.394" xml:space="preserve" xmlns="http://www.w3.org/2000/svg"><radialGradient id="a" cx="188.19" cy="227.95" r="260.57" gradientUnits="userSpaceOnUse"><stop stop-color="#001F2D" offset=".255"/><stop stop-color="#4D4D4D" offset=".964"/></radialGradient><radialGradient id="b" cx="3026" cy="-74.644" r="188.48" gradientTransform="matrix(-1 0 0 1 3268.8 0)" gradientUnits="userSpaceOnUse"><stop stop-color="#001F2D" offset=".255"/><stop stop-color="#4D4D4D" offset=".964"/></radialGradient><radialGradient id="c" cx="119.04" cy="99.478" r="20.174" gradientUnits="userSpaceOnUse"><stop stop-color="#8D3991" offset=".115"/><stop stop-color="#4C2655" offset=".746"/></radialGradient><path d="M114.73 79.43s-2.853 3.643-4.065 9.949l-5.732 10.774 1.596 4.076 10.04.708 2.892-.352 4.491-5.966-.651-5.67-1.594-5.311 3.069-8.21H114.73z" fill="url(#c)"/><radialGradient id="d" cx="44.424" cy="131.47" r="100.44" gradientUnits="userSpaceOnUse"><stop stop-color="#001F2D" offset=".255"/><stop stop-color="#4D4D4D" offset="1"/></radialGradient><path d="M133.96 63.853s6.792 1.5 4.405 12.397c0 0-.125 3.788-4.409 7.217 0 0-5.289 4.262-4.996 9.936 0 0 1.576 9.465-.011 12.78 0 0-3.891 6.563-9.273 6.858 0 0-13.662.65-21.353 0 0 0-15.733.238-21.412 1.657 0 0-9.464 3.052-11.948 5.695h-28.27s-.178-2.967-2.127-6.15c0 0-9.565-19.223-5.934-21.087 0 0 2.835-.529 5.137 4.521 0 0 3.275 5.844 5.138 6.289 0 0 4.608 2.92 3.456-2.395l2.744 1.594 15.236 4.073 14.35-3.896 18.956-4.958h10.452l2.655 1.237s12.613 9.438 15.733-1.451c0 0 .34-2.831-1.702-4.994 0 0-1.589-2.945.852-7.825 0 0 1.757-5.841 1.021-9.018 0 .002-.161-12.086 11.3-12.48z" fill="url(#d)"/><radialGradient id="e" cx="68.075" cy="60.917" r="53.539" gradientUnits="userSpaceOnUse"><stop stop-color="#EE785F" offset=".186"/><stop stop-color="#A2452D" offset=".576"/><stop stop-color="#5D2013" offset="1"/></radialGradient><path d="M48.063 56.558c14.527-9.216 38.479-3.913 38.479-3.913 9.304 2.711 20.895 11.956 20.895 11.956 6.785 8.188-2.183 8.479-2.183 8.479-6.104 1.451-5.476 6.107-5.476 6.107 1.94 4.361 7.368 0 7.368 0 7.075-7.85 10.467-6.353 10.467-6.353a3.313 3.313 0 0 0-.704.569l.704-.569.543 1.494-.543 6.705-7.017 9.241c-.458 1.942-.722 3.237-.722 3.237-1.377 6.616-8.253 7.085-8.253 7.085-7.793.089-11.958 1.242-11.958 1.242-3.012.44-22.675 5.844-22.675 5.844-13.199 3.369-22.59-3.276-22.59-3.276-5.843-4.072-7.882-29.495-7.882-29.495.179-14.793 11.547-18.353 11.547-18.353z" fill="url(#e)"/><path d="M125.66 62.95s1.211 4.606 0 7.117c0 0-1.594 4.045-2.096 6.523 0 0-.918 3.458-2.952 6.087 0 0-2.807 4.399-3.751 5.872 0 0-.944 2.366-1.624 2.544 0 0-1.741.736-1.565-3.959 0 0-.327-9.063 1.683-11.66 0 0 2.038-3.607 4.077-5.581 0 0 2.329-2.984 3.069-4.813 0 0 2.006-3.866 3.159-2.13z" fill="#B8B8B8"/><path d="m 136.52312,41.671999 c 0,0 -0.27757,0.276001 1.89443,3.844001 0,0 8.771,16.987 -4.355,16.986 0,0 -3.70791,1.528304 -6.57691,-12.197696 0,0 2.31391,-1.942958 2.46691,-5.430958 3.0223,-3.736175 5.58099,-5.265531 6.57057,-3.201347 z" fill="url(#b)"/></svg>